<svg width="255" height="79" viewBox="0 0 255 79" fill="none" xmlns="http://www.w3.org/2000/svg">
<path d="M63.9291 35.871C62.8908 37.9167 57.3349 41.868 57.3349 41.868C57.3349 41.868 58.4012 38.197 58.6818 35.2265C58.9624 32.256 60.5618 29.9301 60.5618 29.9301C60.5618 29.9301 59.2711 29.6219 58.1486 30.5186C56.2125 32.0599 57.3629 29.9021 57.3629 29.9021C57.3629 29.9021 59.8323 26.0349 62.5822 19.0291C65.3602 12.0513 63.5362 0.701885 62.3016 0.197467C61.0669 -0.306951 60.5057 1.26235 59.5236 2.66351C58.5415 4.03665 55.7635 7.39944 52.2279 9.13688C48.6923 10.8743 43.0802 15.7784 42.0981 17.5999C41.116 19.4214 39.5726 19.2533 37.5523 18.7488C35.4477 18.2164 32.4453 18.2164 32.4453 18.2164C32.4453 18.2164 29.4428 18.2164 27.3383 18.7488C25.3179 19.2813 23.7746 19.4214 22.7925 17.5999C21.8104 15.7784 16.1702 10.8743 12.6627 9.13688C9.15511 7.39944 6.37713 4.03665 5.36696 2.66351C4.38484 1.29037 3.82363 -0.306951 2.58897 0.197467C1.35431 0.701885 -0.469615 12.0513 2.30837 19.0291C5.08635 26.0349 7.55567 29.9021 7.55567 29.9021C7.55567 29.9021 8.70615 32.0599 6.76998 30.5186C5.64756 29.6219 4.35678 29.9301 4.35678 29.9301C4.35678 29.9301 5.95622 32.256 6.23683 35.2265C6.51743 38.197 7.58373 41.868 7.58373 41.868C7.58373 41.868 2.02776 37.9167 0.989527 35.871C-0.048709 33.8253 3.68333 46.9402 10.1653 53.3575C10.1653 53.3575 5.84398 52.0124 3.87975 52.0404C3.87975 52.0404 8.22912 55.4032 9.63214 56.6362C11.0071 57.8693 14.5427 61.9046 17.9942 63.2777C17.9942 63.2777 12.9433 62.7453 10.951 61.2881C10.951 61.2881 13.2239 64.8751 16.8437 66.6405C20.4635 68.406 21.5298 70.7599 22.6802 72.6095C23.8307 74.459 24.7006 76.1965 27.7872 77.4855C30.8739 78.7746 31.5754 78.9147 32.4733 78.9147C33.3713 78.9147 34.0728 78.7466 37.1594 77.4855C40.2461 76.1965 41.1159 74.459 42.2664 72.6095C43.4169 70.7599 44.4832 68.406 48.103 66.6405C51.7228 64.9031 53.9957 61.2881 53.9957 61.2881C52.0034 62.7453 46.9525 63.2777 46.9525 63.2777C50.404 61.9046 53.9115 57.8693 55.3145 56.6362C56.6895 55.4032 61.0669 52.0404 61.0669 52.0404C59.0746 52.0124 54.7814 53.3575 54.7814 53.3575C61.2353 46.9402 64.9673 33.8534 63.9291 35.871Z" fill="url(#paint0_linear_9_4)"/>
<path d="M32.4733 76.1685C31.5754 76.1685 30.8739 76.0003 28.0398 74.8233C25.346 73.7024 24.4481 72.2452 23.4659 70.6479C23.3818 70.5078 23.2976 70.3677 23.1853 70.1995C23.045 69.9753 22.9328 69.7792 22.7925 69.555C21.8384 67.9857 20.7721 66.1922 17.91 64.791C14.5427 63.1657 12.4382 59.887 12.354 59.7468L11.5683 58.4858L12.7749 59.3545C13.8412 60.1392 15.9738 60.6436 17.4891 60.8958C15.4407 59.6628 13.5325 57.7292 12.2698 56.4962C11.8489 56.0758 11.4841 55.7115 11.2316 55.4873C9.96887 54.3664 5.98429 51.2838 5.92817 51.2558L5.31084 50.7794L6.18071 50.7514C7.49955 50.7514 9.68826 51.3119 10.979 51.6762C5.95623 46.1276 2.75734 36.4035 3.00988 35.815L3.09406 35.6469H3.29049C3.48691 35.6469 3.59915 35.843 3.68333 35.9832C4.4129 37.3843 7.63985 39.9064 9.04288 40.9433C8.73421 39.7663 8.173 37.4684 8.00464 35.5348C7.75209 32.9006 6.32101 30.7989 6.32101 30.7708L6.09653 30.4346L6.48938 30.3505C6.51744 30.3505 6.71386 30.2944 7.05058 30.2944C7.55567 30.2944 8.28524 30.4065 8.95869 30.939C9.2393 31.1632 9.40766 31.2753 9.5199 31.3313C9.46378 31.1632 9.3796 30.939 9.26736 30.7148C9.26736 30.6868 6.9664 27.0437 4.4129 20.6545C2.89764 16.8433 2.95376 12.0793 3.15018 9.58528C3.37467 6.53075 4.02006 3.22401 4.83381 2.88773C5.00217 2.80366 5.1986 2.77563 5.36696 2.77563C6.15265 2.77563 6.62968 3.53226 7.19089 4.42901C7.35925 4.70924 7.52761 4.98947 7.72403 5.2697C8.20106 5.94226 10.8107 9.41714 14.3463 11.1826C17.6294 12.8079 22.8767 17.3757 23.8307 19.1132C24.3078 19.9819 24.897 20.3462 25.823 20.3462C26.4123 20.3462 27.1138 20.1781 27.7311 20.0379C29.6112 19.5615 32.2208 19.5335 32.5014 19.5335C32.8101 19.5335 35.4197 19.5335 37.2997 20.0379C37.9171 20.2061 38.5905 20.3462 39.2078 20.3462C40.1338 20.3462 40.7231 19.9819 41.2001 19.1132C42.1542 17.3477 47.4015 12.8079 50.6846 11.1826C54.2202 9.44516 56.8298 5.97028 57.3068 5.2697C57.5032 4.98947 57.6716 4.70924 57.84 4.42901C58.4012 3.56029 58.8782 2.77563 59.6639 2.77563C59.8323 2.77563 60.0006 2.80366 60.1971 2.88773C61.0108 3.22401 61.6562 6.53075 61.8807 9.58528C62.049 12.0793 62.1052 16.8433 60.618 20.6545C58.0645 27.0718 55.7916 30.6868 55.7635 30.7428C55.6513 30.939 55.5671 31.1632 55.511 31.3313C55.6232 31.2753 55.7916 31.1632 56.0722 30.939C56.7456 30.4065 57.5032 30.2944 57.9803 30.2944C58.2889 30.2944 58.5134 30.3505 58.5415 30.3505L58.9343 30.4346L58.7098 30.7708C58.6818 30.7989 57.2788 32.9006 57.0262 35.5348C56.8579 37.4684 56.2967 39.7663 55.988 40.9433C57.391 39.9064 60.618 37.3843 61.3475 35.9832C61.4317 35.843 61.5159 35.6469 61.7404 35.6469H61.9368L62.021 35.843C62.2735 36.4596 59.0746 46.1836 54.0518 51.7042C55.3426 51.3399 57.5594 50.7794 58.8502 50.7794L59.72 50.8074L59.1027 51.2838C59.0746 51.3119 55.062 54.3944 53.7993 55.5153C53.5467 55.7395 53.1819 56.1038 52.761 56.5242C51.4983 57.7572 49.5621 59.6908 47.5418 60.9238C49.0571 60.6716 51.1616 60.1672 52.2559 59.3825L53.4625 58.5138L52.6769 59.7749C52.5927 59.915 50.4881 63.1657 47.1209 64.8191C44.2587 66.1922 43.1924 67.9857 42.2384 69.583C42.0981 69.8072 41.9578 70.0314 41.8455 70.2275C41.7613 70.3677 41.6491 70.5358 41.5649 70.6759C40.5828 72.2452 39.6849 73.7304 36.9911 74.8233C34.0728 75.9723 33.3713 76.1685 32.4733 76.1685Z" fill="white"/>
<path d="M59.6078 3.0839C59.7481 3.0839 59.8884 3.11193 60.0287 3.16797C61.1511 3.64437 62.8347 14.1251 60.2812 20.5704C57.7277 27.0157 55.4548 30.6027 55.4548 30.6027C55.4548 30.6027 54.8656 31.6956 55.2865 31.6956C55.4268 31.6956 55.7074 31.5555 56.1844 31.1912C56.8018 30.6868 57.4752 30.6027 57.9242 30.6027C58.2328 30.6027 58.4012 30.6588 58.4012 30.6588C58.4012 30.6588 56.914 32.8165 56.6614 35.5628C56.4089 38.3091 55.4268 41.6999 55.4268 41.6999C55.4268 41.6999 60.5618 38.0569 61.5159 36.1513C61.572 36.0112 61.6281 35.9551 61.6562 35.9551C61.9929 35.9551 58.5976 46.8001 53.0417 52.2927C53.0417 52.2927 56.914 51.0877 58.766 51.0877C58.794 51.0877 58.8221 51.0877 58.8502 51.0877C58.8502 51.0877 54.8375 54.1983 53.5467 55.3192C52.256 56.4401 49.0009 60.1672 45.8301 61.4563C45.8301 61.4563 50.5162 60.9519 52.3401 59.6067C52.3401 59.6067 50.2356 62.9135 46.8964 64.5388C43.5572 66.1642 42.5751 68.35 41.5088 70.0594C40.4425 71.7688 39.6568 73.3662 36.7947 74.5431C33.9325 75.7201 33.2871 75.8602 32.4734 75.8602C31.6315 75.8602 30.9861 75.7201 28.152 74.5431C25.2899 73.3662 24.5042 71.7408 23.4379 70.0594C22.3716 68.35 21.3895 66.1642 18.0503 64.5388C14.7111 62.9135 12.6066 59.6067 12.6066 59.6067C14.4586 60.9519 19.1166 61.4563 19.1166 61.4563C15.9458 60.1672 12.6907 56.4401 11.4 55.3192C10.1092 54.1983 6.09654 51.0877 6.09654 51.0877C6.1246 51.0877 6.15266 51.0877 6.18072 51.0877C8.03271 51.0877 11.9051 52.2927 11.9051 52.2927C6.32102 46.8001 2.95377 35.9551 3.2905 35.9551C3.31856 35.9551 3.37468 36.0112 3.4308 36.1513C4.41291 38.0289 9.51991 41.6999 9.51991 41.6999C9.51991 41.6999 8.5378 38.3091 8.28525 35.5628C8.03271 32.8165 6.54551 30.6588 6.54551 30.6588C6.54551 30.6588 6.74193 30.6027 7.02253 30.6027C7.4715 30.6027 8.14495 30.7148 8.76228 31.1912C9.23931 31.5555 9.51991 31.6956 9.66022 31.6956C10.0811 31.6956 9.49185 30.6027 9.49185 30.6027C9.49185 30.6027 7.21896 27.0157 4.66546 20.5704C2.11196 14.1251 3.79558 3.64437 4.918 3.16797C5.0583 3.11193 5.19861 3.0839 5.33891 3.0839C6.20878 3.0839 6.68581 4.34495 7.4715 5.43785C8.3975 6.72692 10.951 9.80948 14.206 11.4348C17.461 13.0321 22.6522 17.5719 23.5782 19.2533C24.1394 20.2902 24.897 20.6264 25.823 20.6264C26.4123 20.6264 27.0577 20.4863 27.7873 20.2902C29.6392 19.8138 32.305 19.8138 32.4734 19.8138C32.6698 19.8138 35.3075 19.8138 37.1594 20.2902C37.889 20.4863 38.5344 20.6264 39.1237 20.6264C40.0497 20.6264 40.8073 20.2902 41.3685 19.2533C42.2945 17.5719 47.4857 13.0321 50.7407 11.4348C53.9957 9.8375 56.5492 6.72692 57.4752 5.43785C58.2609 4.34495 58.766 3.0839 59.6078 3.0839ZM59.6078 2.52344C58.6537 2.52344 58.1206 3.39216 57.5594 4.2889C57.391 4.56913 57.2227 4.84937 57.0262 5.10158C56.5492 5.77413 53.9676 9.19297 50.5162 10.9304C47.2051 12.5558 41.8736 17.2076 40.9195 18.9731C40.4986 19.7297 39.9935 20.066 39.1798 20.066C38.6186 20.066 37.9451 19.8978 37.3559 19.7577C35.4478 19.2533 32.8101 19.2533 32.5295 19.2533H32.5014C32.2208 19.2533 29.5831 19.2813 27.675 19.7577C27.0857 19.8978 26.4123 20.066 25.8511 20.066C25.0373 20.066 24.5322 19.7577 24.1113 18.9731C23.1292 17.1796 17.8258 12.5558 14.5147 10.9304C10.951 9.22099 8.36944 5.80216 7.89241 5.1296C7.69599 4.84937 7.52762 4.56913 7.35926 4.31692C6.79805 3.39216 6.23684 2.55146 5.31085 2.55146C5.11443 2.55146 4.88994 2.60751 4.66546 2.69158C3.2905 3.28006 2.84153 8.96878 2.81347 9.64134C2.64511 12.1634 2.56093 16.9554 4.10425 20.8226C6.18072 26.091 8.06077 29.4257 8.73422 30.5467C8.08883 30.1543 7.44344 30.0703 6.99447 30.0703C6.65775 30.0703 6.40521 30.1263 6.37714 30.1263L5.56339 30.3225L6.04042 30.995C6.04042 31.0231 7.44344 33.0688 7.69599 35.6189C7.83629 37.2442 8.22913 39.0377 8.5378 40.2987C6.85417 39.0097 4.46904 37.02 3.90783 35.9271C3.82365 35.759 3.65528 35.4227 3.26244 35.4227C3.03795 35.4227 2.81347 35.5628 2.72929 35.787C2.67317 35.9551 2.56093 36.1793 3.23438 38.141C3.68334 39.4861 4.30067 41.0554 4.94606 42.5126C6.09654 45.0627 7.86435 48.4815 10.1653 51.2278C8.87452 50.8915 7.24702 50.5272 6.18072 50.5272C6.15266 50.5272 6.1246 50.5272 6.09654 50.5272L4.4971 50.5552L5.75981 51.5361C5.78788 51.5641 9.77246 54.6466 11.0352 55.7395C11.2877 55.9637 11.6525 56.328 12.0734 56.7484C13.0836 57.7572 14.5708 59.2144 16.1702 60.3914C14.9636 60.1112 13.6729 59.7188 12.9433 59.1864L10.5581 57.449L12.1576 59.943C12.2418 60.0831 14.4024 63.4179 17.8258 65.0713C20.6038 66.4164 21.6701 68.1819 22.5961 69.7231C22.7364 69.9473 22.8767 70.1715 22.9889 70.3957C23.0731 70.5358 23.1853 70.7039 23.2695 70.8441C24.2236 72.3853 25.2057 73.9827 27.9837 75.1036C30.8739 76.3086 31.5754 76.4767 32.5295 76.4767C33.4835 76.4767 34.185 76.3086 37.0753 75.1036C39.8532 73.9546 40.8354 72.3573 41.7894 70.8441C41.8736 70.7039 41.9578 70.5638 42.07 70.3957C42.2103 70.1715 42.3506 69.9753 42.4629 69.7231C43.3889 68.1819 44.4552 66.4164 47.2331 65.0713C50.6846 63.4179 52.8172 60.0831 52.9014 59.943L54.5008 57.449L52.1157 59.1864C51.3861 59.7188 50.0953 60.1392 48.8887 60.3914C50.5162 59.2144 51.9754 57.7572 52.9855 56.7484C53.4064 56.328 53.7712 55.9917 54.0238 55.7395C55.2865 54.6186 59.2711 51.5641 59.2991 51.5361L60.5618 50.5552L58.9624 50.5272C58.9343 50.5272 58.9063 50.5272 58.8782 50.5272C57.8119 50.5272 56.1564 50.8915 54.8936 51.2278C57.1946 48.4815 58.9624 45.0627 60.1129 42.5126C60.7863 41.0274 61.3756 39.4861 61.8246 38.141C62.47 36.1793 62.3858 35.9551 62.3297 35.787C62.2455 35.5628 62.021 35.4227 61.7965 35.4227C61.4037 35.4227 61.2353 35.759 61.1511 35.9271C60.5899 37.0481 58.2048 39.0097 56.5211 40.2987C56.8298 39.0377 57.2227 37.2442 57.363 35.6189C57.6155 33.0688 58.9905 30.995 59.0185 30.995L59.4956 30.3225L58.6818 30.1263C58.6537 30.1263 58.4293 30.0703 58.0645 30.0703C57.6155 30.0703 56.9421 30.1543 56.3247 30.5467C56.9982 29.4257 58.8502 26.091 60.9547 20.8226C62.498 16.9554 62.4138 12.1634 62.2455 9.64134C62.1894 8.9968 61.7684 3.28006 60.3935 2.69158C60.0287 2.57948 59.8323 2.52344 59.6078 2.52344Z" fill="#840003"/>
<path d="M38.0012 67.8455C36.7105 66.4724 32.4453 66.6405 32.4453 66.6405C32.4453 66.6405 28.2081 66.4724 26.8893 67.8455C26.5806 68.1818 26.6368 68.8824 27.1418 69.1346C27.5066 69.3308 28.9097 69.583 29.2744 70.1715C29.976 71.3204 31.2667 72.6095 32.4453 72.6095C33.6238 72.6095 34.8865 71.2924 35.6161 70.1715C35.9809 69.583 37.3839 69.3308 37.7487 69.1346C38.2538 68.8544 38.3099 68.1818 38.0012 67.8455Z" fill="#840003"/>
<path d="M34.8304 43.7455C35.7284 43.2411 39.3482 42.0922 39.3482 36.2073C39.3482 31.4433 35.8967 29.2575 35.8967 29.2575C35.8967 29.2575 33.4274 27.8283 33.4274 24.6057C33.4274 21.383 33.4274 19.7296 33.4274 19.7296H32.4453H31.4632C31.4632 19.7296 31.4632 21.383 31.4632 24.6057C31.4632 27.8283 28.9939 29.2575 28.9939 29.2575C28.9939 29.2575 25.5424 31.4153 25.5424 36.2073C25.5424 42.0922 29.1622 43.2411 30.0601 43.7455C30.9581 44.2499 31.8841 48.8457 31.8841 55.4873C31.8841 62.1288 30.0602 64.4827 29.6112 64.875C28.9377 65.4635 29.1903 65.6317 29.4989 65.4915C30.1443 65.2393 32.4453 65.2393 32.4453 65.2393C32.4453 65.2393 34.7462 65.2113 35.3916 65.4915C35.7003 65.6036 35.9528 65.4355 35.2794 64.875C34.8304 64.4827 33.0065 62.1288 33.0065 55.4873C33.0065 48.8457 33.9325 44.2219 34.8304 43.7455ZM32.4453 40.1866C30.5372 40.1866 28.9939 38.0008 28.9939 35.3386C28.9939 32.6763 30.5372 30.4905 32.4453 30.4905C34.3534 30.4905 35.8967 32.6763 35.8967 35.3386C35.8967 38.0008 34.3534 40.1866 32.4453 40.1866Z" fill="#840003"/>
<path d="M59.9726 7.45544C58.1767 11.1545 55.4548 14.3211 52.5366 17.2075C50.9652 18.8889 49.506 20.7385 48.58 22.8402C48.4397 23.1765 48.2714 23.5968 48.1872 23.9331L47.2612 23.4567C48.2153 22.4479 49.1974 21.5231 50.2917 20.6824C51.4141 19.8417 52.6207 19.0571 54.0238 18.7208L55.3987 18.4125C53.8835 20.5423 52.3682 22.8122 51.4983 25.2782C51.2738 25.9508 51.1335 26.231 51.1055 26.9036L50.1514 28.1926C50.1514 28.1086 50.1795 27.1838 50.2075 27.0997C50.5443 25.8947 51.0774 24.7178 51.807 23.6809C52.5366 22.616 53.5467 21.6352 54.8375 21.2709L55.9319 20.9626L55.062 21.6912C53.7712 22.8122 52.5085 24.4936 52.9013 26.3151C52.761 25.8947 52.7049 25.4183 52.761 24.9419C52.9294 23.5408 53.7712 22.3078 54.7533 21.3269L54.9778 21.7473C52.8452 22.588 51.7228 24.8579 51.1055 26.9316C51.0774 26.9876 50.8249 27.0157 50.8249 27.0997C50.8249 27.0717 50.8249 27.2398 50.8249 27.2118L50.2075 27.3519C50.2075 25.7546 50.7968 24.2974 51.4422 22.8962C52.0876 21.5231 52.8452 20.234 53.7151 18.973L54.2763 19.8137C53.0697 20.0939 51.9753 20.8505 50.9932 21.5792C49.478 22.7001 48.2714 23.793 46.9806 25.1941L47.149 23.7369C48.1591 20.2901 50.8249 17.5999 53.3784 15.2739C55.8196 12.92 58.1206 10.3418 59.9726 7.45544Z" fill="#FA050D"/>
<path d="M45.3811 43.073C47.2893 41.6158 49.5902 39.9064 51.358 38.309C52.5366 37.2441 53.21 35.899 54.3605 34.8341L56.3528 32.7885L54.9778 35.3386C53.9396 37.1601 52.9575 39.0937 52.3682 41.1113C52.0034 42.4845 51.9754 43.9697 51.5264 45.3148C50.9091 47.3605 50.0672 49.5183 48.4117 50.9755C49.7586 49.3222 50.404 47.1924 50.881 45.1467C51.2458 43.7455 51.2177 42.2883 51.5544 40.8872C52.1437 38.7574 53.1258 36.7958 54.2202 34.8902L54.8375 35.3946C54.5008 35.7029 54.1641 36.0952 53.8273 36.4875C53.4906 36.8798 53.182 37.2722 52.8733 37.6645C52.1718 38.5332 51.33 39.1497 50.5162 39.7662C48.9448 40.9993 47.2051 42.0922 45.3811 43.073Z" fill="#FA050D"/>
<path d="M38.1135 46.8001C38.0293 46.8001 37.917 44.25 39.6568 43.3252C41.3965 42.4005 46.5877 39.402 46.5877 39.402C46.5877 39.402 43.6414 41.84 42.3506 43.101C41.0598 44.3621 38.5624 46.8281 38.1135 46.8001Z" fill="#FA050D"/>
<path d="M52.3963 47.5568C51.9754 50.275 50.7126 53.0773 48.3275 54.6186C47.2893 55.2351 46.0827 55.5434 44.9322 55.8516C42.7435 56.3841 40.5828 56.4121 38.5063 57.3088L41.0037 56.0758C42.2664 55.5714 41.0318 55.4873 42.2103 56.5242C42.2664 56.5802 42.4909 56.8044 42.547 56.8885C43.7536 58.3457 45.774 57.8413 47.4015 57.3929C47.8505 57.2528 48.2994 57.1127 48.7484 56.9445C47.9627 57.477 47.1209 57.9254 46.1949 58.2616C44.7077 58.8501 42.968 58.8501 41.7894 57.6731C41.6211 57.533 40.9757 57.1127 40.9195 57.0847C40.4425 56.7764 39.292 56.9726 38.4783 57.3369C38.4783 57.3369 38.1977 57.1968 39.1237 56.4682C41.2282 54.6186 43.8378 54.9269 46.7842 53.9741C49.6463 53.0493 51.2458 50.1909 52.3963 47.5568Z" fill="#FA050D"/>
<path d="M47.8224 44.8946C48.0188 44.8385 48.8045 44.194 50.1234 42.4565C50.1234 42.4565 47.2893 44.5303 44.6796 45.7353C42.6312 46.688 40.4986 48.0892 40.1058 48.9019C39.9935 49.1261 39.741 49.9387 39.5726 50.5553C38.8431 53.3576 39.0675 54.3944 39.3481 54.5346C39.6288 54.6747 40.1058 54.3944 40.0216 53.7779C39.9374 53.1614 40.0497 52.7411 40.8915 52.685C41.7613 52.629 45.5495 52.5729 47.0086 51.3679C48.4678 50.1629 48.4678 48.4815 48.4678 48.4815C48.4678 48.4815 48.1311 49.6865 47.4015 50.0508C46.7 50.3871 47.1209 48.5936 47.5418 48.0051C47.9627 47.4167 48.0188 46.66 47.9346 46.0996C47.8224 45.5391 47.626 44.9786 47.8224 44.8946ZM44.5674 48.7898C43.1644 49.5744 41.4527 48.9579 41.4527 48.9579C41.4527 48.9579 41.8736 48.0332 43.2205 47.1084C44.6796 46.0996 45.5495 45.8474 45.5495 45.8474C45.5495 45.8474 45.9704 48.0051 44.5674 48.7898Z" fill="#840003"/>
<path d="M4.80576 7.45544C6.60162 11.1545 9.32349 14.3211 12.2418 17.2075C13.8132 18.8889 15.2723 20.7385 16.1983 22.8402C16.3386 23.1765 16.507 23.5968 16.5911 23.9331L17.5171 23.4567C16.5631 22.4479 15.581 21.5231 14.4866 20.6824C13.3642 19.8417 12.1576 19.0571 10.7546 18.7208L9.37961 18.4125C10.8949 20.5423 12.4101 22.8122 13.28 25.2782C13.5045 25.9508 13.6448 26.231 13.6729 26.9036L14.6269 28.1926C14.6269 28.1086 14.5988 27.1838 14.5708 27.0997C14.2341 25.8947 13.7009 24.7178 12.9713 23.6809C12.2418 22.616 11.2316 21.6352 9.94082 21.2709L8.84646 20.9626L9.71633 21.6912C11.0071 22.8122 12.2698 24.4936 11.877 26.3151C12.0173 25.8947 12.0734 25.4183 12.0173 24.9419C11.8489 23.5408 11.0071 22.3078 10.025 21.3269L9.80051 21.7473C11.9331 22.588 13.0555 24.8579 13.6729 26.9316C13.7009 26.9876 13.9535 27.0157 13.9535 27.0997C13.9535 27.0717 13.9535 27.2398 13.9535 27.2118L14.5708 27.3519C14.5708 25.7546 13.9815 24.2974 13.3361 22.8962C12.6907 21.5231 11.9331 20.234 11.0632 18.973L10.502 19.8137C11.7086 20.0939 12.803 20.8505 13.7851 21.5792C15.3004 22.7001 16.507 23.793 17.7977 25.1941L17.6294 23.7369C16.6192 20.2901 13.9535 17.5999 11.4 15.2739C8.93064 12.92 6.65774 10.3418 4.80576 7.45544Z" fill="#FA050D"/>
<path d="M19.3691 43.073C17.461 41.6158 15.1601 39.9064 13.3922 38.309C12.2137 37.2441 11.5403 35.899 10.3898 34.8341L8.39749 32.7885L9.77245 35.3386C10.8107 37.1601 11.7928 39.0937 12.3821 41.1113C12.7469 42.4845 12.7749 43.9697 13.2239 45.3148C13.8412 47.3605 14.683 49.5183 16.3386 50.9755C14.9917 49.3222 14.3463 47.1924 13.8693 45.1467C13.5045 43.7455 13.5326 42.2883 13.1958 40.8872C12.6066 38.7574 11.6244 36.7958 10.5301 34.8902L9.91276 35.3946C10.2495 35.7029 10.5862 36.0952 10.9229 36.4875C11.2597 36.8798 11.5683 37.2722 11.877 37.6645C12.5785 38.5332 13.4203 39.1497 14.2341 39.7662C15.8335 40.9993 17.5733 42.0922 19.3691 43.073Z" fill="#FA050D"/>
<path d="M26.6648 46.8001C26.749 46.8001 26.8613 44.25 25.1215 43.3252C23.3818 42.4005 18.1906 39.402 18.1906 39.402C18.1906 39.402 21.1369 41.84 22.4277 43.101C23.7185 44.3621 26.2159 46.8281 26.6648 46.8001Z" fill="#FA050D"/>
<path d="M12.3821 47.5568C12.803 50.275 14.0657 53.0773 16.4508 54.6186C17.4891 55.2351 18.6957 55.5434 19.8462 55.8516C22.0349 56.3841 24.1955 56.4121 26.272 57.3088L23.7746 56.0758C22.5119 55.5714 23.7466 55.4873 22.568 56.5242C22.5119 56.5802 22.2874 56.8044 22.2313 56.8885C21.0247 58.3457 19.0043 57.8413 17.3768 57.3929C16.9279 57.2528 16.4789 57.1127 16.0299 56.9445C16.8156 57.477 17.6574 57.9254 18.5834 58.2616C20.0706 58.8501 21.8104 58.8501 22.9889 57.6731C23.1573 57.533 23.8027 57.1127 23.8588 57.0847C24.3358 56.7764 25.4863 56.9726 26.3001 57.3369C26.3001 57.3369 26.5807 57.1968 25.6547 56.4682C23.5501 54.6186 20.9405 54.9269 17.9942 53.9741C15.132 53.0493 13.5326 50.1909 12.3821 47.5568Z" fill="#FA050D"/>
<path d="M16.8437 46.0996C16.7595 46.688 16.8156 47.4166 17.2365 48.0051C17.6574 48.5936 18.0783 50.4151 17.3768 50.0508C16.6753 49.7146 16.3105 48.4815 16.3105 48.4815C16.3105 48.4815 16.2825 50.1629 17.7697 51.3679C19.2288 52.5729 23.045 52.629 23.8869 52.685C24.7567 52.7411 24.869 53.1614 24.7567 53.7779C24.6725 54.3944 25.1496 54.6466 25.4302 54.5345C25.7108 54.4225 25.9353 53.3576 25.2057 50.5553C25.0373 49.9387 24.7848 49.098 24.6725 48.9019C24.2797 48.0612 22.119 46.66 20.0987 45.7353C17.4891 44.5303 14.655 42.4565 14.655 42.4565C15.9738 44.194 16.7595 44.8385 16.9559 44.8946C17.1523 44.9786 16.9559 45.5391 16.8437 46.0996ZM19.2288 45.8754C19.2288 45.8754 20.0987 46.1276 21.5578 47.1364C22.8767 48.0612 23.3256 48.986 23.3256 48.986C23.3256 48.986 21.614 49.6305 20.2109 48.8178C18.8079 48.0051 19.2288 45.8754 19.2288 45.8754Z" fill="#840003"/>
<path d="M81.9719 35.2825V25.9508H89.2396V35.2825H95.1884V25.9508H102.568V43.9697C102.568 43.9697 102.737 44.9506 103.691 44.9506C104.645 44.9506 104.925 44.9506 104.925 44.9506V52.2366H100.492C100.492 52.2366 95.1884 50.4992 95.1884 46.6319C95.1884 42.7647 95.1884 42.5125 95.1884 42.5125H89.2677V52.2366H81.9439V42.5686H79.671V35.2825H81.9719Z" fill="white"/>
<path d="M108.012 25.9508V52.2086H128.552V25.9508H108.012ZM121.257 44.9506H115.336V33.2649H121.257V44.9506Z" fill="white"/>
<path d="M132.144 25.9508V33.1808H134.613V35.4227H132.144V42.6526H134.473V52.2366H141.741V42.6807H147.83V44.9225H143.06V52.2366C143.06 52.2366 145.136 52.2366 149.485 52.2366C153.835 52.2366 155.041 46.9682 155.041 46.9682V25.9788H132.144V25.9508ZM147.914 36.1793H141.797V33.2368H147.914V36.1793Z" fill="white"/>
<path d="M160.85 25.9508H168.061V46.744C168.061 46.744 166.743 52.2366 162.702 52.2366C158.661 52.2366 158.409 52.2366 158.409 52.2366V45.0066C158.409 45.0066 160.822 45.2028 160.822 43.6615C160.822 42.1202 160.85 25.9508 160.85 25.9508Z" fill="white"/>
<path d="M194.242 25.9508H201.453V46.744C201.453 46.744 200.134 52.2366 196.094 52.2366C192.053 52.2366 191.8 52.2366 191.8 52.2366V45.0066C191.8 45.0066 194.214 45.2028 194.214 43.6615C194.214 42.1202 194.242 25.9508 194.242 25.9508Z" fill="white"/>
<path d="M212.397 52.2366H205.073V25.9789H212.397V27.4641C212.397 27.4641 214.305 25.9789 218.009 25.9789C221.713 25.9789 226.203 25.9789 226.203 25.9789V43.4654C226.203 43.4654 226.034 45.0347 227.297 45.0347C228.56 45.0347 228.447 45.0347 228.447 45.0347V52.2366H224.8C224.8 52.2366 218.907 52.0405 218.907 45.6232C218.907 39.2058 218.907 33.0688 218.907 33.0688C218.907 33.0688 212.509 33.5171 212.509 38.0569C212.509 42.5967 212.397 52.2366 212.397 52.2366Z" fill="white"/>
<path d="M231.59 25.9508H241.299V37.8887C241.299 37.8887 241.439 45.0066 246.939 45.0066V25.8948H254.207V52.2366H246.154C246.154 52.2366 233.919 51.3959 233.919 38.5333C233.919 37.02 233.919 33.9935 233.919 33.9935H231.59V25.9508Z" fill="white"/>
<defs>
<linearGradient id="paint0_linear_9_4" x1="32.4468" y1="78.9051" x2="32.4468" y2="0.103535" gradientUnits="userSpaceOnUse">
<stop stop-color="#F45D2A"/>
<stop offset="0.5056" stop-color="#F1BC37"/>
<stop offset="1" stop-color="#EF6D27"/>
</linearGradient>
</defs>
</svg>
