<svg width="50" height="48" viewBox="0 0 50 48" fill="none" xmlns="http://www.w3.org/2000/svg">
<path d="M12.1438 8.42978C10.8938 11.2248 11.3875 16.2326 11.5875 19.7347C10.2375 20.4813 8.50417 19.1712 7.52292 19.1712C6.50209 19.1712 5.28334 19.8408 5.09167 20.839C4.95417 21.5586 5.27709 22.6067 7.59375 23.5197C8.48959 23.8732 10.6208 24.2892 11.1146 25.4496C11.8083 27.08 7.55209 34.6063 0.868754 35.7043C0.345837 35.7896 -0.0270794 36.2554 0.00208731 36.7837C0.118754 38.8113 4.67292 39.6058 6.69167 39.9177C6.89792 40.1964 7.06459 41.3735 7.32917 42.2698C7.44792 42.6712 7.75417 43.1516 8.54167 43.1516C9.56875 43.1516 11.275 42.3613 14.2458 42.8521C17.1583 43.3366 19.8958 47.4585 25.1521 47.4585C30.0375 47.4585 32.9521 43.3179 35.7563 42.8521C37.3792 42.5838 38.7729 42.6691 40.3312 42.9727C41.4042 43.1827 42.3667 43.2992 42.6729 42.2469C42.9417 41.3381 43.1063 40.1839 43.3083 39.9115C45.3083 39.6016 49.8833 38.8092 49.9979 36.7816C50.0271 36.2534 49.6542 35.7896 49.1313 35.7023C42.5604 34.6208 38.175 27.1175 38.8854 25.4475C39.3771 24.2892 41.4938 23.8774 42.4062 23.5176C44.1021 22.85 44.9521 22.0286 44.9333 21.0782C44.9104 19.8616 43.4437 19.1358 42.3646 19.1358C41.2667 19.1358 39.6896 20.4335 38.4125 19.7306C38.6125 16.1993 39.1042 11.2144 37.8563 8.42146C35.4917 3.13292 30.2313 0.458496 24.9729 0.458496C19.7479 0.458496 14.5271 3.09549 12.1438 8.42978Z" fill="white"/>
</svg>
