<svg width="76" height="76" viewBox="0 0 76 76" fill="none" xmlns="http://www.w3.org/2000/svg">
<path d="M55.25 26.6855H19.3125V25.2558L50.9375 22.7394V25.2558H55.25V20.9665C55.25 17.821 52.6884 15.6134 49.5604 16.0566L20.6925 20.1572C17.5616 20.6033 15 23.54 15 26.6855V55.2809C15 56.7977 15.6058 58.2524 16.6841 59.3249C17.7625 60.3975 19.225 61 20.75 61H55.25C56.775 61 58.2375 60.3975 59.3159 59.3249C60.3942 58.2524 61 56.7977 61 55.2809V32.4046C61 30.8878 60.3942 29.4331 59.3159 28.3606C58.2375 27.2881 56.775 26.6855 55.25 26.6855ZM50.9375 46.7195C50.371 46.7193 49.8101 46.6081 49.2867 46.3923C48.7634 46.1765 48.288 45.8603 47.8875 45.4617C47.4871 45.0632 47.1694 44.59 46.9528 44.0694C46.7362 43.5487 46.6248 42.9908 46.625 42.4273C46.6252 41.8638 46.737 41.3059 46.9539 40.7854C47.1709 40.2649 47.4888 39.792 47.8895 39.3937C48.2903 38.9954 48.7659 38.6795 49.2894 38.4641C49.8129 38.2486 50.3739 38.1378 50.9404 38.138C52.0845 38.1384 53.1816 38.5908 53.9904 39.3957C54.7991 40.2007 55.2533 41.2922 55.2529 42.4302C55.2525 43.5681 54.7976 44.6593 53.9883 45.4637C53.179 46.2681 52.0816 46.7198 50.9375 46.7195Z" fill="white"/>
</svg>
