<svg width="60" height="60" viewBox="0 0 60 60" fill="none" xmlns="http://www.w3.org/2000/svg">
<path d="M23.75 30C29.265 30 33.75 25.515 33.75 20C33.75 14.485 29.265 10 23.75 10C18.235 10 13.75 14.485 13.75 20C13.75 25.515 18.235 30 23.75 30ZM27.5 32.5H20C11.7275 32.5 5 39.2275 5 47.5V50H42.5V47.5C42.5 39.2275 35.7725 32.5 27.5 32.5Z" fill="white"/>
<path d="M41.51 27.6199C43.0326 25.0251 43.6902 22.0132 43.3875 19.0199C42.94 14.5599 40.45 10.6174 36.38 7.91992L33.6175 12.0849C36.415 13.9399 38.1175 16.5824 38.4125 19.5199C38.5485 20.8852 38.3786 22.2636 37.915 23.5549C37.4514 24.8462 36.7058 26.0179 35.7325 26.9849L32.7525 29.9649L36.7975 31.1524C47.3775 34.2524 47.5 44.8924 47.5 44.9999H52.5C52.5 40.5274 50.11 31.7874 41.51 27.6199Z" fill="white"/>
</svg>
