<svg width="34" height="25" viewBox="0 0 34 25" fill="none" xmlns="http://www.w3.org/2000/svg">
<path d="M1.59999 11.3345H30.75C31.7324 11.3345 32.6404 10.7936 33.1315 9.91567C33.6228 9.03775 33.6228 7.95585 33.1315 7.07794C32.6404 6.20002 31.7324 5.65907 30.75 5.65907H9.54199L10.3999 1.34572C10.4598 1.01811 10.3773 0.67984 10.174 0.420909C9.97066 0.161712 9.66743 0.00791689 9.34431 0.000315015C9.02144 -0.00753918 8.7116 0.131811 8.497 0.380876L0.797 9.46162C0.616041 9.67977 0.521755 9.96025 0.533296 10.247C0.544836 10.5338 0.661468 10.8057 0.859367 11.0074C1.05727 11.2091 1.32171 11.3262 1.59989 11.3345L1.59999 11.3345Z" fill="white"/>
<path d="M33.5 14.7398V14.6377C33.4904 14.5123 33.4607 14.3897 33.4121 14.2744V14.2176C33.3596 14.1171 33.293 14.0253 33.2139 13.9453C33.131 13.8748 33.0381 13.8176 32.9389 13.775H32.8729C32.7636 13.7578 32.6524 13.7578 32.5429 13.775H3.25022C2.26782 13.775 1.35985 14.3159 0.868747 15.1939C0.37743 16.0718 0.37743 17.1537 0.868747 18.0316C1.35982 18.9095 2.26782 19.4505 3.25022 19.4505H24.4582L23.6003 23.5936C23.5404 23.9212 23.6229 24.2594 23.8262 24.5184C24.0295 24.7776 24.3328 24.9314 24.6559 24.939C24.9788 24.9468 25.2886 24.8075 25.5032 24.5584L33.2032 15.4777C33.2894 15.3735 33.3564 15.2544 33.4013 15.1257V15.0122C33.4455 14.9263 33.4787 14.8346 33.5003 14.7398L33.5 14.7398Z" fill="white"/>
</svg>
