<svg width="44" height="46" viewBox="0 0 44 46" fill="none" xmlns="http://www.w3.org/2000/svg">
<path d="M33 23.0424L30.25 26.1449L33.9167 30.2691H10.0833L13.75 26.1449L11 23.0424L5.5 29.2286V37.8364C5.5 39.9174 7.15 41.62 9.16667 41.62H34.8333C36.85 41.62 38.5 39.9174 38.5 37.8364V29.2475L33 23.0424Z" fill="white"/>
<path d="M19.415 27.2801C20.845 28.7746 23.1733 28.7935 24.6217 27.299L33.7517 17.8777C35.1817 16.4021 35.1817 13.9995 33.7517 12.5239L27.2617 5.84573C25.8317 4.37011 23.5033 4.37011 22.0733 5.84573L12.9983 15.2102C12.313 15.9167 11.9264 16.8742 11.9229 17.8738C11.9195 18.8734 12.2995 19.8338 12.98 20.5452L19.415 27.2801ZM24.6767 8.5132L31.1483 15.1913L22.0917 24.5369L15.62 17.8588L24.6767 8.5132Z" fill="white"/>
</svg>
