<svg width="30" height="37" viewBox="0 0 30 37" fill="none" xmlns="http://www.w3.org/2000/svg">
<path d="M13.075 20.6958C13.3194 20.6958 13.5486 20.6573 13.7625 20.5803C13.9764 20.5045 14.175 20.375 14.3583 20.1916L20.8667 13.6833C21.2028 13.3472 21.3708 12.9194 21.3708 12.4C21.3708 11.8805 21.2028 11.4375 20.8667 11.0708C20.5 10.7347 20.0569 10.5666 19.5375 10.5666C19.0181 10.5666 18.5903 10.7347 18.2542 11.0708L13.075 16.25L11.7917 14.9666C11.4556 14.6305 11.0278 14.4625 10.5083 14.4625C9.98888 14.4625 9.56111 14.6305 9.225 14.9666C8.85833 15.3333 8.675 15.7763 8.675 16.2958C8.675 16.8152 8.85833 17.243 9.225 17.5791L11.7917 20.1916C11.975 20.375 12.1736 20.5045 12.3875 20.5803C12.6014 20.6573 12.8306 20.6958 13.075 20.6958ZM15 36.6458C14.7556 36.6458 14.5111 36.6 14.2667 36.5083C14.0222 36.4166 13.8083 36.2944 13.625 36.1416C9.16388 32.2 5.83333 28.5412 3.63333 25.1655C1.43333 21.7885 0.333328 18.6333 0.333328 15.7C0.333328 11.1166 1.80794 7.46524 4.75716 4.74579C7.70516 2.02635 11.1194 0.666626 15 0.666626C18.8806 0.666626 22.2948 2.02635 25.2428 4.74579C28.1921 7.46524 29.6667 11.1166 29.6667 15.7C29.6667 18.6333 28.5667 21.7885 26.3667 25.1655C24.1667 28.5412 20.8361 32.2 16.375 36.1416C16.1917 36.2944 15.9778 36.4166 15.7333 36.5083C15.4889 36.6 15.2444 36.6458 15 36.6458Z" fill="white"/>
</svg>
