<svg width="34" height="26" viewBox="0 0 34 26" fill="none" xmlns="http://www.w3.org/2000/svg">
<path d="M1.59999 12.0264H30.75C31.7324 12.0264 32.6404 11.4855 33.1315 10.6076C33.6228 9.72965 33.6228 8.64774 33.1315 7.76983C32.6404 6.89192 31.7324 6.35097 30.75 6.35097H9.54199L10.3999 2.03761C10.4598 1.71001 10.3773 1.37173 10.174 1.1128C9.97066 0.853607 9.66743 0.699811 9.34431 0.69221C9.02144 0.684355 8.71159 0.823705 8.497 1.07277L0.797 10.1535C0.616041 10.3717 0.521755 10.6521 0.533296 10.9389C0.544836 11.2257 0.661468 11.4976 0.859367 11.6993C1.05727 11.901 1.32171 12.0181 1.59989 12.0264L1.59999 12.0264Z" fill="white"/>
<path d="M33.5 15.4317V15.3296C33.4904 15.2042 33.4607 15.0816 33.4121 14.9663V14.9095C33.3596 14.8089 33.293 14.7172 33.214 14.6372C33.131 14.5667 33.0381 14.5095 32.9389 14.4669H32.8729C32.7636 14.4497 32.6524 14.4497 32.5429 14.4669H3.25022C2.26782 14.4669 1.35985 15.0078 0.868747 15.8858C0.37743 16.7637 0.37743 17.8456 0.868747 18.7235C1.35982 19.6014 2.26782 20.1424 3.25022 20.1424H24.4582L23.6003 24.2855C23.5404 24.6131 23.6229 24.9513 23.8262 25.2103C24.0295 25.4695 24.3328 25.6233 24.6559 25.6309C24.9788 25.6387 25.2886 25.4994 25.5032 25.2503L33.2032 16.1696C33.2894 16.0654 33.3564 15.9463 33.4013 15.8176V15.7041C33.4455 15.6182 33.4787 15.5265 33.5003 15.4317L33.5 15.4317Z" fill="white"/>
</svg>
