<svg width="373" height="75" viewBox="0 0 373 75" fill="none" xmlns="http://www.w3.org/2000/svg">
<path d="M46.517 46V28.5455H53.5057C54.7898 28.5455 55.8608 28.7358 56.7188 29.1165C57.5767 29.4972 58.2216 30.0256 58.6534 30.7017C59.0852 31.3722 59.3011 32.1449 59.3011 33.0199C59.3011 33.7017 59.1648 34.3011 58.892 34.8182C58.6193 35.3295 58.2443 35.75 57.767 36.0795C57.2955 36.4034 56.7557 36.6335 56.1477 36.7699V36.9403C56.8125 36.9687 57.4347 37.1562 58.0142 37.5028C58.5994 37.8494 59.0739 38.3352 59.4375 38.9602C59.8011 39.5795 59.983 40.3182 59.983 41.1761C59.983 42.1023 59.7528 42.929 59.2926 43.6562C58.8381 44.3778 58.1648 44.9489 57.2727 45.3693C56.3807 45.7898 55.2813 46 53.9744 46H46.517ZM50.2074 42.983H53.2159C54.2443 42.983 54.9943 42.7869 55.4659 42.3949C55.9375 41.9972 56.1733 41.4687 56.1733 40.8097C56.1733 40.3267 56.0568 39.9006 55.8239 39.5312C55.5909 39.1619 55.2585 38.8722 54.8267 38.6619C54.4006 38.4517 53.892 38.3466 53.3011 38.3466H50.2074V42.983ZM50.2074 35.8494H52.9432C53.4489 35.8494 53.8977 35.7614 54.2898 35.5852C54.6875 35.4034 55 35.1477 55.2273 34.8182C55.4602 34.4886 55.5767 34.0938 55.5767 33.6335C55.5767 33.0028 55.3523 32.4943 54.9034 32.108C54.4602 31.7216 53.8295 31.5284 53.0114 31.5284H50.2074V35.8494ZM70.2309 40.4261V32.9091H73.8616V46H70.3758V43.6222H70.2395C69.944 44.3892 69.4525 45.0057 68.765 45.4716C68.0832 45.9375 67.2508 46.1705 66.2679 46.1705C65.3929 46.1705 64.623 45.9716 63.9582 45.5739C63.2934 45.1761 62.7736 44.6108 62.3986 43.8778C62.0292 43.1449 61.8417 42.267 61.8361 41.2443V32.9091H65.4667V40.5966C65.4724 41.3693 65.6798 41.9801 66.0889 42.429C66.498 42.8778 67.0463 43.1023 67.7338 43.1023C68.1713 43.1023 68.5804 43.0028 68.9611 42.804C69.3417 42.5994 69.6486 42.2983 69.8815 41.9006C70.1201 41.5028 70.2366 41.0114 70.2309 40.4261ZM78.5272 50.9091C78.067 50.9091 77.6352 50.8722 77.2318 50.7983C76.834 50.7301 76.5045 50.642 76.2431 50.5341L77.0613 47.8239C77.4874 47.9545 77.871 48.0256 78.2119 48.0369C78.5585 48.0483 78.8568 47.9688 79.1068 47.7983C79.3624 47.6278 79.5698 47.3381 79.7289 46.929L79.942 46.375L75.246 32.9091H79.0641L81.7744 42.5227H81.9107L84.6465 32.9091H88.4903L83.4022 47.4148C83.1579 48.1193 82.8255 48.733 82.4051 49.2557C81.9903 49.7841 81.4647 50.1903 80.8284 50.4744C80.192 50.7642 79.4249 50.9091 78.5272 50.9091ZM100.858 46.2557C99.5338 46.2557 98.389 45.9744 97.423 45.4119C96.4628 44.8437 95.7213 44.054 95.1986 43.0426C94.6759 42.0256 94.4145 40.8466 94.4145 39.5057C94.4145 38.1534 94.6759 36.9716 95.1986 35.9602C95.7213 34.9432 96.4628 34.1534 97.423 33.5909C98.389 33.0227 99.5338 32.7386 100.858 32.7386C102.182 32.7386 103.324 33.0227 104.284 33.5909C105.25 34.1534 105.994 34.9432 106.517 35.9602C107.04 36.9716 107.301 38.1534 107.301 39.5057C107.301 40.8466 107.04 42.0256 106.517 43.0426C105.994 44.054 105.25 44.8437 104.284 45.4119C103.324 45.9744 102.182 46.2557 100.858 46.2557ZM100.875 43.4432C101.477 43.4432 101.98 43.2727 102.383 42.9318C102.787 42.5852 103.091 42.1136 103.295 41.517C103.505 40.9205 103.611 40.2415 103.611 39.4801C103.611 38.7188 103.505 38.0398 103.295 37.4432C103.091 36.8466 102.787 36.375 102.383 36.0284C101.98 35.6818 101.477 35.5085 100.875 35.5085C100.267 35.5085 99.7554 35.6818 99.3407 36.0284C98.9316 36.375 98.6219 36.8466 98.4117 37.4432C98.2071 38.0398 98.1049 38.7188 98.1049 39.4801C98.1049 40.2415 98.2071 40.9205 98.4117 41.517C98.6219 42.1136 98.9316 42.5852 99.3407 42.9318C99.7554 43.2727 100.267 43.4432 100.875 43.4432ZM112.812 38.4318V46H109.182V32.9091H112.642V35.2188H112.795C113.085 34.4574 113.571 33.8551 114.253 33.4119C114.935 32.9631 115.761 32.7386 116.733 32.7386C117.642 32.7386 118.435 32.9375 119.111 33.3352C119.787 33.733 120.312 34.3011 120.687 35.0398C121.062 35.7727 121.25 36.6477 121.25 37.6648V46H117.619V38.3125C117.625 37.5114 117.42 36.8864 117.006 36.4375C116.591 35.983 116.02 35.7557 115.292 35.7557C114.804 35.7557 114.372 35.8608 113.997 36.071C113.628 36.2812 113.338 36.5881 113.128 36.9915C112.923 37.3892 112.818 37.8693 112.812 38.4318ZM128.774 46V28.5455H135.661C136.984 28.5455 138.112 28.7983 139.044 29.304C139.976 29.804 140.686 30.5 141.175 31.392C141.669 32.2784 141.916 33.3011 141.916 34.4602C141.916 35.6193 141.666 36.642 141.166 37.5284C140.666 38.4148 139.942 39.1051 138.993 39.5994C138.05 40.0937 136.908 40.3409 135.567 40.3409H131.178V37.3835H134.97C135.68 37.3835 136.266 37.2614 136.726 37.017C137.192 36.767 137.538 36.4233 137.766 35.9858C137.999 35.5426 138.115 35.0341 138.115 34.4602C138.115 33.8807 137.999 33.375 137.766 32.9432C137.538 32.5057 137.192 32.1676 136.726 31.929C136.26 31.6847 135.669 31.5625 134.953 31.5625H132.465V46H128.774ZM147.147 46.2472C146.311 46.2472 145.567 46.1023 144.914 45.8125C144.26 45.517 143.743 45.0824 143.362 44.5085C142.987 43.929 142.8 43.2074 142.8 42.3438C142.8 41.6165 142.933 41.0057 143.2 40.5114C143.468 40.017 143.831 39.6193 144.291 39.3182C144.752 39.017 145.274 38.7898 145.86 38.6364C146.45 38.483 147.07 38.375 147.718 38.3125C148.479 38.233 149.093 38.1591 149.558 38.0909C150.024 38.017 150.362 37.9091 150.573 37.767C150.783 37.625 150.888 37.4148 150.888 37.1364V37.0852C150.888 36.5455 150.718 36.1278 150.377 35.8324C150.041 35.5369 149.564 35.3892 148.945 35.3892C148.291 35.3892 147.772 35.5341 147.385 35.8239C146.999 36.108 146.743 36.4659 146.618 36.8977L143.26 36.625C143.431 35.8295 143.766 35.142 144.266 34.5625C144.766 33.9773 145.411 33.5284 146.2 33.2159C146.996 32.8977 147.916 32.7386 148.962 32.7386C149.689 32.7386 150.385 32.8239 151.05 32.9943C151.72 33.1648 152.314 33.429 152.831 33.7869C153.354 34.1449 153.766 34.6051 154.067 35.1676C154.368 35.7244 154.519 36.392 154.519 37.1705V46H151.075V44.1847H150.973C150.763 44.5938 150.482 44.9545 150.129 45.267C149.777 45.5739 149.354 45.8153 148.86 45.9915C148.365 46.1619 147.794 46.2472 147.147 46.2472ZM148.186 43.7415C148.72 43.7415 149.192 43.6364 149.601 43.4261C150.01 43.2102 150.331 42.9205 150.564 42.5568C150.797 42.1932 150.914 41.7812 150.914 41.321V39.9318C150.8 40.0057 150.644 40.0739 150.445 40.1364C150.252 40.1932 150.033 40.2472 149.789 40.2983C149.544 40.3437 149.3 40.3864 149.056 40.4261C148.811 40.4602 148.59 40.4915 148.391 40.5199C147.965 40.5824 147.593 40.6818 147.274 40.8182C146.956 40.9545 146.709 41.1392 146.533 41.3722C146.357 41.5994 146.269 41.8835 146.269 42.2244C146.269 42.7188 146.448 43.0966 146.806 43.358C147.169 43.6136 147.629 43.7415 148.186 43.7415ZM160.486 38.4318V46H156.855V32.9091H160.316V35.2188H160.469C160.759 34.4574 161.245 33.8551 161.926 33.4119C162.608 32.9631 163.435 32.7386 164.407 32.7386C165.316 32.7386 166.108 32.9375 166.784 33.3352C167.461 33.733 167.986 34.3011 168.361 35.0398C168.736 35.7727 168.924 36.6477 168.924 37.6648V46H165.293V38.3125C165.299 37.5114 165.094 36.8864 164.679 36.4375C164.265 35.983 163.693 35.7557 162.966 35.7557C162.478 35.7557 162.046 35.8608 161.671 36.071C161.301 36.2812 161.012 36.5881 160.801 36.9915C160.597 37.3892 160.492 37.8693 160.486 38.4318ZM177.22 46.2557C175.879 46.2557 174.726 45.9716 173.76 45.4034C172.799 44.8295 172.061 44.0341 171.544 43.017C171.032 42 170.777 40.8295 170.777 39.5057C170.777 38.1648 171.035 36.9886 171.552 35.9773C172.075 34.9602 172.816 34.1676 173.777 33.5994C174.737 33.0256 175.879 32.7386 177.203 32.7386C178.345 32.7386 179.345 32.946 180.203 33.3608C181.061 33.7756 181.74 34.358 182.24 35.108C182.74 35.858 183.015 36.7386 183.066 37.75H179.64C179.544 37.0966 179.288 36.571 178.873 36.1733C178.464 35.7699 177.927 35.5682 177.262 35.5682C176.7 35.5682 176.209 35.7216 175.788 36.0284C175.373 36.3295 175.049 36.7699 174.816 37.3494C174.584 37.929 174.467 38.6307 174.467 39.4545C174.467 40.2898 174.581 41 174.808 41.5852C175.041 42.1705 175.368 42.6165 175.788 42.9233C176.209 43.2301 176.7 43.3835 177.262 43.3835C177.677 43.3835 178.049 43.2983 178.379 43.1278C178.714 42.9574 178.99 42.7102 179.206 42.3864C179.427 42.0568 179.572 41.6619 179.64 41.2017H183.066C183.01 42.2017 182.737 43.0824 182.248 43.8438C181.765 44.5994 181.098 45.1903 180.245 45.6165C179.393 46.0426 178.385 46.2557 177.22 46.2557ZM188.644 46.2472C187.809 46.2472 187.064 46.1023 186.411 45.8125C185.758 45.517 185.241 45.0824 184.86 44.5085C184.485 43.929 184.297 43.2074 184.297 42.3438C184.297 41.6165 184.431 41.0057 184.698 40.5114C184.965 40.017 185.329 39.6193 185.789 39.3182C186.249 39.017 186.772 38.7898 187.357 38.6364C187.948 38.483 188.567 38.375 189.215 38.3125C189.976 38.233 190.59 38.1591 191.056 38.0909C191.522 38.017 191.86 37.9091 192.07 37.767C192.28 37.625 192.385 37.4148 192.385 37.1364V37.0852C192.385 36.5455 192.215 36.1278 191.874 35.8324C191.539 35.5369 191.062 35.3892 190.442 35.3892C189.789 35.3892 189.269 35.5341 188.883 35.8239C188.496 36.108 188.241 36.4659 188.116 36.8977L184.758 36.625C184.928 35.8295 185.263 35.142 185.763 34.5625C186.263 33.9773 186.908 33.5284 187.698 33.2159C188.493 32.8977 189.414 32.7386 190.459 32.7386C191.187 32.7386 191.883 32.8239 192.547 32.9943C193.218 33.1648 193.812 33.429 194.329 33.7869C194.851 34.1449 195.263 34.6051 195.564 35.1676C195.866 35.7244 196.016 36.392 196.016 37.1705V46H192.573V44.1847H192.471C192.26 44.5938 191.979 44.9545 191.627 45.267C191.275 45.5739 190.851 45.8153 190.357 45.9915C189.863 46.1619 189.292 46.2472 188.644 46.2472ZM189.684 43.7415C190.218 43.7415 190.689 43.6364 191.099 43.4261C191.508 43.2102 191.829 42.9205 192.062 42.5568C192.295 42.1932 192.411 41.7812 192.411 41.321V39.9318C192.297 40.0057 192.141 40.0739 191.942 40.1364C191.749 40.1932 191.53 40.2472 191.286 40.2983C191.042 40.3437 190.797 40.3864 190.553 40.4261C190.309 40.4602 190.087 40.4915 189.888 40.5199C189.462 40.5824 189.09 40.6818 188.772 40.8182C188.454 40.9545 188.207 41.1392 188.03 41.3722C187.854 41.5994 187.766 41.8835 187.766 42.2244C187.766 42.7188 187.945 43.0966 188.303 43.358C188.667 43.6136 189.127 43.7415 189.684 43.7415ZM201.643 42.233L201.651 37.8778H202.18L206.373 32.9091H210.54L204.907 39.4886H204.046L201.643 42.233ZM198.353 46V28.5455H201.984V46H198.353ZM206.535 46L202.682 40.2983L205.103 37.733L210.788 46H206.535ZM217.269 46.2557C215.922 46.2557 214.763 45.983 213.791 45.4375C212.825 44.8864 212.081 44.108 211.558 43.1023C211.036 42.0909 210.774 40.8949 210.774 39.5142C210.774 38.1676 211.036 36.9858 211.558 35.9688C212.081 34.9517 212.817 34.1591 213.766 33.5909C214.72 33.0227 215.84 32.7386 217.124 32.7386C217.987 32.7386 218.791 32.8778 219.536 33.1562C220.286 33.429 220.939 33.8409 221.496 34.392C222.058 34.9432 222.496 35.6364 222.808 36.4716C223.121 37.3011 223.277 38.2727 223.277 39.3864V40.3835H212.223V38.1335H219.859C219.859 37.6108 219.746 37.1477 219.519 36.7443C219.291 36.3409 218.976 36.0256 218.572 35.7983C218.175 35.5653 217.712 35.4489 217.183 35.4489C216.632 35.4489 216.144 35.5767 215.717 35.8324C215.297 36.0824 214.967 36.4205 214.729 36.8466C214.49 37.267 214.368 37.7358 214.362 38.2528V40.392C214.362 41.0398 214.482 41.5994 214.72 42.071C214.965 42.5426 215.308 42.9062 215.751 43.1619C216.195 43.4176 216.72 43.5455 217.328 43.5455C217.732 43.5455 218.101 43.4886 218.436 43.375C218.771 43.2614 219.058 43.0909 219.297 42.8636C219.536 42.6364 219.717 42.358 219.842 42.0284L223.2 42.25C223.03 43.0568 222.68 43.7614 222.152 44.3636C221.629 44.9602 220.953 45.4261 220.124 45.7614C219.3 46.0909 218.348 46.2557 217.269 46.2557ZM236.058 36.642L232.735 36.8466C232.678 36.5625 232.556 36.3068 232.368 36.0795C232.181 35.8466 231.933 35.6619 231.627 35.5256C231.325 35.3835 230.965 35.3125 230.544 35.3125C229.982 35.3125 229.507 35.4318 229.121 35.6705C228.735 35.9034 228.541 36.2159 228.541 36.608C228.541 36.9205 228.666 37.1847 228.916 37.4006C229.166 37.6165 229.595 37.7898 230.203 37.9205L232.573 38.3977C233.845 38.6591 234.794 39.0795 235.419 39.6591C236.044 40.2386 236.357 41 236.357 41.9432C236.357 42.8011 236.104 43.554 235.598 44.2017C235.098 44.8494 234.411 45.3551 233.536 45.7188C232.666 46.0767 231.664 46.2557 230.527 46.2557C228.794 46.2557 227.414 45.8949 226.385 45.1733C225.362 44.446 224.763 43.4574 224.587 42.2074L228.158 42.0199C228.266 42.5483 228.527 42.9517 228.942 43.2301C229.357 43.5028 229.888 43.6392 230.536 43.6392C231.172 43.6392 231.683 43.517 232.07 43.2727C232.462 43.0227 232.661 42.7017 232.666 42.3097C232.661 41.9801 232.521 41.7102 232.249 41.5C231.976 41.2841 231.556 41.1193 230.987 41.0057L228.72 40.554C227.442 40.2983 226.49 39.8551 225.865 39.2244C225.246 38.5937 224.936 37.7898 224.936 36.8125C224.936 35.9716 225.164 35.2472 225.618 34.6392C226.078 34.0312 226.723 33.5625 227.553 33.233C228.388 32.9034 229.365 32.7386 230.485 32.7386C232.138 32.7386 233.439 33.0881 234.388 33.7869C235.342 34.4858 235.899 35.4375 236.058 36.642ZM240.745 46L237.183 32.9091H240.856L242.885 41.7045H243.004L245.117 32.9091H248.723L250.87 41.6534H250.981L252.975 32.9091H256.64L253.086 46H249.242L246.992 37.767H246.831L244.581 46H240.745ZM261.83 46.2472C260.995 46.2472 260.25 46.1023 259.597 45.8125C258.944 45.517 258.427 45.0824 258.046 44.5085C257.671 43.929 257.483 43.2074 257.483 42.3438C257.483 41.6165 257.617 41.0057 257.884 40.5114C258.151 40.017 258.515 39.6193 258.975 39.3182C259.435 39.017 259.958 38.7898 260.543 38.6364C261.134 38.483 261.753 38.375 262.401 38.3125C263.162 38.233 263.776 38.1591 264.242 38.0909C264.708 38.017 265.046 37.9091 265.256 37.767C265.466 37.625 265.571 37.4148 265.571 37.1364V37.0852C265.571 36.5455 265.401 36.1278 265.06 35.8324C264.725 35.5369 264.248 35.3892 263.628 35.3892C262.975 35.3892 262.455 35.5341 262.069 35.8239C261.682 36.108 261.427 36.4659 261.302 36.8977L257.944 36.625C258.114 35.8295 258.449 35.142 258.949 34.5625C259.449 33.9773 260.094 33.5284 260.884 33.2159C261.679 32.8977 262.6 32.7386 263.645 32.7386C264.373 32.7386 265.069 32.8239 265.733 32.9943C266.404 33.1648 266.998 33.429 267.515 33.7869C268.037 34.1449 268.449 34.6051 268.75 35.1676C269.052 35.7244 269.202 36.392 269.202 37.1705V46H265.759V44.1847H265.657C265.446 44.5938 265.165 44.9545 264.813 45.267C264.461 45.5739 264.037 45.8153 263.543 45.9915C263.049 46.1619 262.478 46.2472 261.83 46.2472ZM262.87 43.7415C263.404 43.7415 263.875 43.6364 264.284 43.4261C264.694 43.2102 265.015 42.9205 265.248 42.5568C265.481 42.1932 265.597 41.7812 265.597 41.321V39.9318C265.483 40.0057 265.327 40.0739 265.128 40.1364C264.935 40.1932 264.716 40.2472 264.472 40.2983C264.228 40.3437 263.983 40.3864 263.739 40.4261C263.495 40.4602 263.273 40.4915 263.074 40.5199C262.648 40.5824 262.276 40.6818 261.958 40.8182C261.64 40.9545 261.392 41.1392 261.216 41.3722C261.04 41.5994 260.952 41.8835 260.952 42.2244C260.952 42.7188 261.131 43.0966 261.489 43.358C261.853 43.6136 262.313 43.7415 262.87 43.7415ZM271.539 50.9091V32.9091H275.118V35.108H275.28C275.439 34.7557 275.67 34.3977 275.971 34.0341C276.277 33.6648 276.675 33.358 277.164 33.1136C277.658 32.8636 278.272 32.7386 279.005 32.7386C279.959 32.7386 280.84 32.9886 281.647 33.4886C282.454 33.983 283.099 34.7301 283.581 35.7301C284.064 36.7244 284.306 37.9716 284.306 39.4716C284.306 40.9318 284.07 42.1648 283.599 43.1705C283.133 44.1705 282.496 44.929 281.689 45.446C280.888 45.9574 279.991 46.2131 278.996 46.2131C278.292 46.2131 277.692 46.0966 277.198 45.8636C276.709 45.6307 276.309 45.3381 275.996 44.9858C275.684 44.6278 275.445 44.267 275.28 43.9034H275.17V50.9091H271.539ZM275.093 39.4545C275.093 40.233 275.201 40.9119 275.417 41.4915C275.633 42.071 275.945 42.5227 276.354 42.8466C276.763 43.1648 277.26 43.3239 277.846 43.3239C278.437 43.3239 278.937 43.1619 279.346 42.8381C279.755 42.5085 280.064 42.054 280.275 41.4744C280.491 40.8892 280.599 40.2159 280.599 39.4545C280.599 38.6989 280.493 38.0341 280.283 37.4602C280.073 36.8864 279.763 36.4375 279.354 36.1136C278.945 35.7898 278.442 35.6278 277.846 35.6278C277.255 35.6278 276.755 35.7841 276.346 36.0966C275.942 36.4091 275.633 36.8523 275.417 37.4261C275.201 38 275.093 38.6761 275.093 39.4545Z" fill="white"/>
<g clip-path="url(#clip0_101_49)">
<path fill-rule="evenodd" clip-rule="evenodd" d="M301.7 25C301.2 22.4 303.2 20 305.8 20C308.1 20 310 21.9 310 24.2V29.4C310.6 29.4 311.2 29.3 311.8 29.3C312.4 29.3 312.9 29.3 313.5 29.4V24.2C313.5 21.9 315.4 20 317.7 20C320.3 20 322.3 22.4 321.9 25L320.8 31.1C324.7 32.8 327.7 35.8 327.7 39.5V41.8C327.7 44.9 325.7 47.5 322.8 49.2C319.9 51 316.1 52 311.8 52C307.5 52 303.7 51 300.8 49.2C298 47.5 296 44.9 296 41.8V39.5C296 35.8 298.9 32.8 302.8 31.1L301.7 25ZM319.3 31.9L320.6 24.7C320.9 22.9 319.6 21.2 317.7 21.2C316.1 21.2 314.8 22.5 314.8 24.1V30.7C314.4 30.6 313.9 30.6 313.5 30.6C312.9 30.6 312.4 30.5 311.8 30.5C311.2 30.5 310.6 30.5 310 30.6C309.6 30.6 309.1 30.7 308.7 30.7V24.2C308.7 22.6 307.4 21.3 305.8 21.3C304 21.3 302.6 23 303 24.8L304.3 32C300.1 33.6 297.3 36.4 297.3 39.6V41.9C297.3 46.8 303.8 50.8 311.8 50.8C319.8 50.8 326.3 46.8 326.3 41.9V39.6C326.4 36.3 323.6 33.5 319.3 31.9Z" fill="#633001"/>
<path d="M326.4 41.8C326.4 46.7 319.9 50.7 311.9 50.7C303.9 50.7 297.4 46.7 297.4 41.8V39.5H326.5V41.8H326.4Z" fill="#FEDC90"/>
<path fill-rule="evenodd" clip-rule="evenodd" d="M303 24.8C302.6 23 304 21.3 305.8 21.3C307.4 21.3 308.7 22.6 308.7 24.2V30.8C309.7 30.7 310.7 30.6 311.8 30.6C312.8 30.6 313.8 30.7 314.8 30.8V24.2C314.8 22.6 316.1 21.3 317.7 21.3C319.5 21.3 320.9 23 320.6 24.8L319.3 32C323.5 33.6 326.4 36.4001 326.4 39.6C326.4 44.5 319.9 48.5 311.9 48.5C303.9 48.5 297.4 44.5 297.4 39.6C297.4 36.4001 300.2 33.6 304.4 32L303 24.8Z" fill="#D1884F"/>
<path d="M307.8 38.9C307.8 40.2 307.1 41.3 306.2 41.3C305.3 41.3 304.6 40.2 304.6 38.9C304.6 37.6 305.3 36.5 306.2 36.5C307.1 36.5 307.8 37.6 307.8 38.9Z" fill="#633001"/>
<path d="M318.9 38.9C318.9 40.2 318.2 41.3 317.3 41.3C316.4 41.3 315.7 40.2 315.7 38.9C315.7 37.6 316.4 36.5 317.3 36.5C318.2 36.5 318.9 37.6 318.9 38.9Z" fill="#633001"/>
</g>
<rect x="0.5" y="0.5" width="371.7" height="74" rx="37" stroke="url(#paint0_linear_101_49)"/>
<defs>
<linearGradient id="paint0_linear_101_49" x1="186.35" y1="0" x2="186.35" y2="75" gradientUnits="userSpaceOnUse">
<stop stop-color="#F55526"/>
<stop offset="1" stop-color="#C91513"/>
</linearGradient>
<clipPath id="clip0_101_49">
<rect width="31.7" height="32" fill="white" transform="translate(296 20)"/>
</clipPath>
</defs>
</svg>
