<svg width="224" height="45" viewBox="0 0 224 45" fill="none" xmlns="http://www.w3.org/2000/svg">
<g opacity="0.5" clip-path="url(#clip0_153_19)">
<path d="M13.701 18.9085L22.4021 10.1722L31.1068 18.9156L36.1668 13.8295L22.4021 0L8.63745 13.8259L13.701 18.9085Z" fill="#F3BA2F"/>
<path d="M-0.00180054 22.501L5.05992 17.4167L10.1216 22.501L5.05992 27.5852L-0.00180054 22.501Z" fill="#F3BA2F"/>
<path d="M13.701 26.0914L22.4021 34.8313L31.1068 26.0879L36.1704 31.1669L36.1668 31.1704L22.4021 44.9999L8.63745 31.1775L8.63037 31.1704L13.701 26.0914Z" fill="#F3BA2F"/>
<path d="M34.6741 22.502L39.7358 17.4177L44.7975 22.502L39.7358 27.5862L34.6741 22.502Z" fill="#F3BA2F"/>
<path d="M27.5365 22.4986L22.4021 17.3379L18.6053 21.1516L18.1666 21.5887L17.2678 22.4915L17.2607 22.4986L17.2678 22.5093L22.4021 27.6629L27.5365 22.5022L27.54 22.4986H27.5365Z" fill="#F3BA2F"/>
<path d="M52.6951 10.9043H63.7068C66.4385 10.9043 68.505 11.6151 69.9062 13.0368C70.4342 13.562 70.8503 14.1894 71.1295 14.881C71.4087 15.5727 71.5451 16.314 71.5304 17.0602V17.1277C71.5399 17.739 71.4552 18.3481 71.2792 18.9333C71.1224 19.4371 70.8948 19.9158 70.6033 20.355C70.3316 20.7691 70.0028 21.1424 69.6267 21.4639C69.2593 21.7815 68.8568 22.0558 68.4272 22.2814C69.6662 22.7148 70.7803 23.4471 71.6719 24.4139C72.4598 25.3143 72.8538 26.5583 72.8538 28.1458V28.2134C72.8762 29.2048 72.6614 30.1872 72.2275 31.0781C71.807 31.8988 71.1907 32.6022 70.4335 33.1253C69.5774 33.7018 68.6243 34.1172 67.6204 34.3515C66.4277 34.6356 65.205 34.7728 63.9793 34.7602H52.6951V10.9043ZM62.6028 20.5505C63.5555 20.5967 64.5036 20.3908 65.3522 19.9533C65.6831 19.7592 65.9533 19.4758 66.1322 19.1354C66.3111 18.7949 66.3914 18.4109 66.3642 18.027V17.9594C66.3817 17.6056 66.3102 17.2531 66.1562 16.9344C66.0022 16.6157 65.7707 16.3412 65.4831 16.1361C64.8958 15.7167 64.0477 15.507 62.939 15.507H57.7869V20.5505H62.6028ZM63.9934 30.1646C64.9426 30.218 65.8874 29.9999 66.7181 29.5355C67.0417 29.3267 67.3036 29.0345 67.4766 28.6895C67.6496 28.3444 67.7274 27.9591 67.7018 27.5736V27.5061C67.7145 27.1397 67.6376 26.7757 67.4779 26.4461C67.3181 26.1164 67.0803 25.8311 66.7853 25.6152C66.1767 25.1413 65.193 24.9044 63.8342 24.9044H57.7869V30.1646H63.9934Z" fill="#F3BA2F"/>
<path d="M79.4142 10.9043H84.6405V34.7673H79.4142V10.9043Z" fill="#F3BA2F"/>
<path d="M92.549 10.9043H97.3684L108.508 25.5903V10.9043H113.667V34.7673H109.219L97.7152 19.5979V34.7673H92.549V10.9043Z" fill="#F3BA2F"/>
<path d="M129.491 10.7334H134.303L144.483 34.767H139.027L136.854 29.4144H126.809L124.636 34.767H119.307L129.491 10.7334ZM134.99 24.7797L131.826 17.0386L128.677 24.7797H134.99Z" fill="#F3BA2F"/>
<path d="M150.134 10.9043H154.954L166.086 25.5903V10.9043H171.245V34.7673H166.797L155.293 19.5979V34.7673H150.134V10.9043Z" fill="#F3BA2F"/>
<path d="M190.055 35.1864C188.39 35.2007 186.738 34.8767 185.201 34.2339C183.753 33.6334 182.439 32.748 181.338 31.6297C180.236 30.5114 179.368 29.1829 178.785 27.7225C178.171 26.195 177.859 24.5613 177.869 22.9137V22.8461C177.842 19.5984 179.086 16.4699 181.333 14.1348C182.439 12.9941 183.763 12.0898 185.225 11.4762C186.816 10.8143 188.525 10.4841 190.246 10.5059C191.265 10.4983 192.282 10.5899 193.282 10.7796C194.139 10.9422 194.976 11.1935 195.781 11.5295C196.511 11.8382 197.205 12.2268 197.851 12.6882C198.481 13.1382 199.072 13.6398 199.62 14.1881L196.297 18.0408C195.448 17.2541 194.496 16.588 193.466 16.0611C192.455 15.5755 191.346 15.3322 190.225 15.3503C189.293 15.3403 188.369 15.5297 187.514 15.906C186.66 16.2822 185.896 16.8367 185.271 17.5326C184.652 18.2267 184.167 19.0306 183.842 19.9033C183.501 20.8254 183.329 21.8021 183.336 22.7857V22.8533C183.332 23.8355 183.504 24.8105 183.842 25.7322C184.163 26.6079 184.643 27.4164 185.257 28.1171C185.877 28.8216 186.639 29.3842 187.494 29.7668C188.349 30.1495 189.275 30.3432 190.211 30.3349C191.403 30.3726 192.585 30.115 193.654 29.585C194.672 29.0278 195.613 28.3396 196.453 27.5377L199.779 30.9142C199.192 31.5545 198.557 32.1486 197.879 32.6913C197.213 33.2201 196.49 33.6719 195.724 34.0384C194.907 34.4245 194.047 34.7097 193.162 34.8879C192.139 35.0938 191.098 35.1938 190.055 35.1864Z" fill="#F3BA2F"/>
<path d="M205.947 10.9043H223.827V15.5745H211.088V20.4154H222.305V25.0856H211.106V30.0971H224.004V34.7673H205.957L205.947 10.9043Z" fill="#F3BA2F"/>
</g>
<defs>
<clipPath id="clip0_153_19">
<rect width="224" height="45" fill="white"/>
</clipPath>
</defs>
</svg>
