<svg width="305" height="47" viewBox="0 0 305 47" fill="none" xmlns="http://www.w3.org/2000/svg">
<g opacity="0.5" clip-path="url(#clip0_153_2)">
<path d="M58.8126 36.1583C58.1033 36.1583 57.6019 36.0126 57.3083 35.7216C57.0393 35.4304 56.9048 34.9693 56.9048 34.3385V13.2663C56.9048 12.6354 57.0514 12.1744 57.345 11.8833C57.6386 11.5679 58.1276 11.4102 58.8126 11.4102H67.8014C71.2257 11.4102 73.745 12.1259 75.3595 13.5574C76.9738 14.9889 77.781 17.1241 77.781 19.9628C77.781 22.7773 76.9738 24.9002 75.3595 26.3317C73.7695 27.7391 71.2502 28.4427 67.8014 28.4427H64.316V34.3385C64.316 34.9693 64.1693 35.4304 63.8757 35.7216C63.5821 36.0126 63.0807 36.1583 62.3714 36.1583H58.8126ZM67.2145 23.1655C68.2174 23.1655 68.9879 22.8986 69.526 22.3648C70.0883 21.831 70.3698 21.0304 70.3698 19.9628C70.3698 18.871 70.0883 18.0582 69.526 17.5244C68.9879 16.9906 68.2174 16.7237 67.2145 16.7237H64.316V23.1655H67.2145Z" fill="white"/>
<path d="M86.4455 36.7046C84.1464 36.7046 82.2998 35.9767 80.9055 34.5211C79.5357 33.0409 78.851 30.9665 78.851 28.2975C78.851 26.2595 79.3157 24.4761 80.245 22.9476C81.199 21.4191 82.5321 20.2423 84.2443 19.4174C85.9809 18.5682 87.9743 18.1436 90.2245 18.1436C92.0836 18.1436 93.7224 18.3498 95.141 18.7623C96.584 19.1505 97.9048 19.7207 99.1033 20.4728V35.0305C99.1033 35.4915 99.0179 35.7948 98.8464 35.9403C98.6752 36.086 98.3329 36.1587 97.8193 36.1587H94.0769C93.8079 36.1587 93.6 36.1224 93.4533 36.0494C93.3064 35.9526 93.1843 35.8068 93.0864 35.6127L92.6093 34.5211C91.9 35.2731 91.044 35.8191 90.0412 36.1587C89.0629 36.5227 87.8643 36.7046 86.4455 36.7046ZM89.1974 31.7549C90.1512 31.7549 90.8971 31.5244 91.4352 31.0636C91.9733 30.6026 92.2424 29.9474 92.2424 29.0981V23.4207C91.7779 23.2024 91.1907 23.0932 90.4814 23.0932C89.185 23.0932 88.1455 23.542 87.3629 24.4397C86.6045 25.3374 86.2255 26.5991 86.2255 28.2247C86.2255 30.5783 87.2159 31.7549 89.1974 31.7549Z" fill="white"/>
<path d="M104.209 36.1587C103.5 36.1587 102.998 36.013 102.705 35.722C102.411 35.4308 102.265 34.9698 102.265 34.339V19.8177C102.265 19.381 102.338 19.0898 102.485 18.9442C102.656 18.7744 102.998 18.6895 103.512 18.6895H107.291C107.585 18.6895 107.805 18.738 107.951 18.835C108.123 18.9078 108.22 19.0534 108.245 19.2718L108.428 20.3636C109.113 19.6843 110.006 19.1505 111.107 18.7623C112.232 18.3498 113.479 18.1436 114.849 18.1436C116.83 18.1436 118.432 18.7016 119.655 19.8177C120.878 20.9095 121.49 22.5351 121.49 24.6945V34.339C121.49 34.9698 121.343 35.4308 121.05 35.722C120.78 36.013 120.291 36.1587 119.582 36.1587H116.023C115.314 36.1587 114.8 36.013 114.482 35.722C114.189 35.4308 114.042 34.9698 114.042 34.339V25.1676C114.042 24.4397 113.883 23.9182 113.565 23.6027C113.247 23.2873 112.745 23.1296 112.061 23.1296C111.327 23.1296 110.74 23.3237 110.3 23.7118C109.884 24.1001 109.676 24.6338 109.676 25.3133V34.339C109.676 34.9698 109.529 35.4308 109.236 35.722C108.967 36.013 108.477 36.1587 107.768 36.1587H104.209Z" fill="white"/>
<path d="M134.458 36.7046C131.034 36.7046 128.392 35.916 126.533 34.339C124.675 32.762 123.745 30.4692 123.745 27.4604C123.745 25.6166 124.173 23.9909 125.029 22.5837C125.885 21.1764 127.12 20.0846 128.735 19.3082C130.374 18.5318 132.306 18.1436 134.532 18.1436C136.219 18.1436 137.638 18.3013 138.788 18.6167C139.962 18.9321 141.001 19.4173 141.906 20.0725C142.175 20.2423 142.31 20.4607 142.31 20.7276C142.31 20.9217 142.212 21.1764 142.016 21.4918L140.512 24.0757C140.341 24.4156 140.133 24.5854 139.888 24.5854C139.741 24.5854 139.509 24.4883 139.191 24.2942C138.531 23.8818 137.907 23.5784 137.32 23.3843C136.757 23.1902 136.048 23.0932 135.192 23.0932C133.969 23.0932 132.979 23.4814 132.22 24.2578C131.486 25.0342 131.12 26.1017 131.12 27.4604C131.12 28.8435 131.499 29.9111 132.257 30.6631C133.015 31.391 134.055 31.7549 135.375 31.7549C136.158 31.7549 136.868 31.6458 137.504 31.4273C138.14 31.2091 138.788 30.9058 139.448 30.5176C139.79 30.3234 140.035 30.2264 140.182 30.2264C140.402 30.2264 140.598 30.3962 140.769 30.736L142.42 33.5383C142.542 33.7809 142.603 33.975 142.603 34.1205C142.603 34.339 142.456 34.5452 142.163 34.7393C141.136 35.3945 140.01 35.8796 138.788 36.1951C137.589 36.5347 136.146 36.7046 134.458 36.7046Z" fill="white"/>
<path d="M151.906 36.7046C149.606 36.7046 147.76 35.9767 146.366 34.5211C144.996 33.0409 144.311 30.9665 144.311 28.2975C144.311 26.2595 144.776 24.4761 145.705 22.9476C146.659 21.4191 147.992 20.2423 149.704 19.4174C151.441 18.5682 153.435 18.1436 155.685 18.1436C157.544 18.1436 159.182 18.3498 160.601 18.7623C162.044 19.1505 163.365 19.7207 164.564 20.4728V35.0305C164.564 35.4915 164.478 35.7948 164.307 35.9403C164.135 36.086 163.793 36.1587 163.279 36.1587H159.537C159.268 36.1587 159.06 36.1224 158.913 36.0494C158.767 35.9526 158.644 35.8068 158.546 35.6127L158.07 34.5211C157.36 35.2731 156.504 35.8191 155.501 36.1587C154.523 36.5227 153.324 36.7046 151.906 36.7046ZM154.657 31.7549C155.611 31.7549 156.357 31.5244 156.895 31.0636C157.434 30.6026 157.703 29.9474 157.703 29.0981V23.4207C157.238 23.2024 156.651 23.0932 155.941 23.0932C154.645 23.0932 153.606 23.542 152.823 24.4397C152.065 25.3374 151.685 26.5991 151.685 28.2247C151.685 30.5783 152.676 31.7549 154.657 31.7549Z" fill="white"/>
<path d="M187.61 34.7752C187.781 34.9693 187.867 35.1878 187.867 35.4304C187.867 35.6486 187.794 35.8307 187.647 35.9762C187.5 36.0976 187.305 36.1583 187.06 36.1583H181.373C181.031 36.1583 180.774 36.1339 180.603 36.0855C180.456 36.0126 180.297 35.8791 180.126 35.6852L175.136 28.9522V34.3385C175.136 34.9693 174.989 35.4304 174.696 35.7216C174.402 36.0126 173.901 36.1583 173.191 36.1583H169.633C168.923 36.1583 168.422 36.0126 168.128 35.7216C167.859 35.4304 167.725 34.9693 167.725 34.3385V13.2663C167.725 12.6354 167.871 12.1744 168.165 11.8833C168.459 11.5679 168.948 11.4102 169.633 11.4102H173.191C173.901 11.4102 174.402 11.5679 174.696 11.8833C174.989 12.1744 175.136 12.6354 175.136 13.2663V25.4583L179.979 19.1985C180.126 19.0044 180.285 18.871 180.456 18.7982C180.627 18.7254 180.884 18.689 181.226 18.689H186.913C187.158 18.689 187.341 18.7618 187.464 18.9074C187.61 19.0287 187.684 19.1985 187.684 19.4169C187.684 19.6595 187.598 19.8779 187.427 20.072L181.153 27.2054L187.61 34.7752Z" fill="white"/>
<path d="M199.523 36.7046C197.469 36.7046 195.634 36.3649 194.02 35.6857C192.43 35.0062 191.17 33.9871 190.241 32.6286C189.312 31.2698 188.847 29.6078 188.847 27.6425C188.847 24.5611 189.727 22.2076 191.489 20.582C193.25 18.9564 195.781 18.1436 199.083 18.1436C202.312 18.1436 204.758 18.9442 206.421 20.5456C208.109 22.1227 208.953 24.3185 208.953 27.1329C208.953 28.3461 208.415 28.9526 207.338 28.9526H195.818C195.818 29.9958 196.209 30.7967 196.992 31.3546C197.799 31.9127 199.01 32.1916 200.624 32.1916C201.627 32.1916 202.459 32.1068 203.119 31.937C203.804 31.7429 204.489 31.4639 205.174 31.1C205.467 30.9786 205.663 30.9179 205.76 30.9179C205.981 30.9179 206.164 31.0636 206.311 31.3546L207.558 33.6838C207.681 33.9266 207.742 34.1085 207.742 34.2299C207.742 34.4481 207.595 34.6545 207.301 34.8484C206.299 35.5036 205.161 35.9767 203.89 36.2679C202.618 36.5591 201.162 36.7046 199.523 36.7046ZM202.349 25.3497C202.349 24.4276 202.08 23.7118 201.541 23.2024C201.003 22.6928 200.196 22.4381 199.12 22.4381C198.044 22.4381 197.224 22.705 196.662 23.2388C196.099 23.7484 195.818 24.452 195.818 25.3497H202.349Z" fill="white"/>
<path d="M221.528 36.7041C219.473 36.7041 217.529 36.4979 215.694 36.0855C213.86 35.6486 212.38 35.0421 211.255 34.2658C210.839 33.9989 210.631 33.7197 210.631 33.4287C210.631 33.2346 210.705 33.0284 210.851 32.81L212.649 29.9713C212.845 29.6801 213.04 29.5346 213.236 29.5346C213.358 29.5346 213.566 29.6194 213.86 29.7892C214.765 30.2989 215.792 30.7112 216.942 31.0266C218.091 31.3421 219.229 31.4999 220.354 31.4999C221.503 31.4999 222.347 31.33 222.885 30.9902C223.448 30.6506 223.729 30.1047 223.729 29.3525C223.729 28.6246 223.423 28.0545 222.812 27.6421C222.225 27.2295 221.112 26.708 219.473 26.0771C217.003 25.1551 215.07 24.1239 213.676 22.9835C212.306 21.8189 211.622 20.2418 211.622 18.2523C211.622 15.8503 212.49 14.0184 214.227 12.7568C215.963 11.4951 218.275 10.8643 221.161 10.8643C223.166 10.8643 224.879 11.0462 226.297 11.4102C227.74 11.7498 228.963 12.2836 229.966 13.0115C230.382 13.3269 230.59 13.6181 230.59 13.885C230.59 14.0548 230.517 14.2489 230.37 14.4673L228.572 17.306C228.352 17.5972 228.156 17.7428 227.985 17.7428C227.863 17.7428 227.655 17.6578 227.361 17.488C225.943 16.566 224.255 16.105 222.298 16.105C221.246 16.105 220.439 16.2749 219.877 16.6146C219.314 16.9542 219.033 17.5123 219.033 18.2887C219.033 18.8225 219.18 19.2592 219.473 19.5989C219.767 19.9385 220.158 20.2418 220.647 20.5087C221.161 20.7514 221.944 21.0668 222.995 21.455L223.692 21.7097C225.502 22.4134 226.921 23.0927 227.948 23.7479C229 24.3785 229.795 25.1671 230.333 26.1135C230.871 27.0353 231.14 28.1999 231.14 29.6073C231.14 31.7667 230.321 33.4894 228.682 34.7752C227.068 36.0612 224.683 36.7041 221.528 36.7041Z" fill="white"/>
<path d="M238.936 36.1587C238.569 36.1587 238.288 36.098 238.092 35.9766C237.896 35.8555 237.749 35.6127 237.651 35.2487L232.919 19.5265C232.87 19.3809 232.845 19.2718 232.845 19.199C232.845 18.8593 233.09 18.6895 233.579 18.6895H238.421C238.74 18.6895 238.971 18.7501 239.119 18.8714C239.267 18.9685 239.364 19.1383 239.412 19.3809L241.393 27.6425L243.888 20.9823C244.012 20.6911 244.133 20.497 244.255 20.4C244.402 20.2786 244.648 20.218 244.99 20.218H247.3C247.643 20.218 247.876 20.2786 247.998 20.4C248.145 20.497 248.279 20.6911 248.402 20.9823L250.86 27.6425L252.879 19.3809C252.95 19.1383 253.048 18.9685 253.171 18.8714C253.293 18.7501 253.514 18.6895 253.831 18.6895H258.712C259.2 18.6895 259.445 18.8593 259.445 19.199C259.445 19.2718 259.421 19.3809 259.371 19.5265L254.602 35.2487C254.505 35.6127 254.357 35.8555 254.162 35.9766C253.99 36.098 253.721 36.1587 253.355 36.1587H249.76C249.417 36.1587 249.16 36.098 248.988 35.9766C248.817 35.8311 248.671 35.5886 248.548 35.2487L246.126 28.6614L243.705 35.2487C243.607 35.5886 243.46 35.8311 243.264 35.9766C243.093 36.098 242.838 36.1587 242.495 36.1587H238.936Z" fill="white"/>
<path d="M268.745 36.7046C266.445 36.7046 264.6 35.9767 263.205 34.5211C261.836 33.0409 261.15 30.9665 261.15 28.2975C261.15 26.2595 261.614 24.4761 262.545 22.9476C263.498 21.4191 264.831 20.2423 266.543 19.4174C268.281 18.5682 270.274 18.1436 272.524 18.1436C274.383 18.1436 276.021 18.3498 277.44 18.7623C278.883 19.1505 280.205 19.7207 281.402 20.4728V35.0305C281.402 35.4915 281.317 35.7948 281.145 35.9403C280.974 36.086 280.633 36.1587 280.119 36.1587H276.376C276.107 36.1587 275.9 36.1224 275.752 36.0494C275.605 35.9526 275.483 35.8068 275.386 35.6127L274.909 34.5211C274.2 35.2731 273.343 35.8191 272.34 36.1587C271.362 36.5227 270.164 36.7046 268.745 36.7046ZM271.498 31.7549C272.45 31.7549 273.198 31.5244 273.736 31.0636C274.274 30.6026 274.543 29.9474 274.543 29.0981V23.4207C274.076 23.2024 273.49 23.0932 272.781 23.0932C271.483 23.0932 270.445 23.542 269.662 24.4397C268.905 25.3374 268.524 26.5991 268.524 28.2247C268.524 30.5783 269.517 31.7549 271.498 31.7549Z" fill="white"/>
<path d="M286.471 43.5104C285.762 43.5104 285.262 43.3649 284.967 43.0737C284.698 42.7824 284.564 42.3214 284.564 41.6906V20.8367C285.664 20.0603 287.048 19.4173 288.71 18.9078C290.374 18.3983 292.11 18.1436 293.919 18.1436C301.307 18.1436 305 21.2492 305 27.4604C305 30.275 304.217 32.5192 302.652 34.1935C301.086 35.8675 298.874 36.7046 296.012 36.7046C295.205 36.7046 294.421 36.6075 293.662 36.4134C292.929 36.2194 292.317 35.9526 291.829 35.6127V41.6906C291.829 42.3214 291.681 42.7824 291.388 43.0737C291.095 43.3649 290.593 43.5104 289.883 43.5104H286.471ZM294.433 31.7913C295.486 31.7913 296.269 31.4032 296.781 30.6267C297.319 29.826 297.588 28.7585 297.588 27.4241C297.588 25.8471 297.271 24.7429 296.636 24.1121C296.024 23.4571 295.069 23.1296 293.774 23.1296C292.94 23.1296 292.281 23.2388 291.793 23.4571V29.2438C291.793 30.0688 292.024 30.6997 292.488 31.1364C292.955 31.5731 293.602 31.7913 294.433 31.7913Z" fill="white"/>
<path fill-rule="evenodd" clip-rule="evenodd" d="M23.2277 46.9072C16.2771 46.902 10.6782 45.2475 6.76619 42.2759C2.80726 39.2686 0.707078 35.0008 0.707078 30.1716C0.707078 25.5186 2.80267 22.1635 5.17381 19.8955C7.03205 18.1182 9.08264 16.9799 10.5105 16.3251C10.1876 15.3422 9.78476 14.0553 9.42433 12.7262C8.94207 10.9476 8.46895 8.86089 8.46895 7.33174C8.46895 5.52179 8.86676 3.7041 9.93938 2.29168C11.0726 0.799416 12.7787 0 14.8311 0C16.4352 0 17.797 0.590223 18.8632 1.60842C19.8823 2.58167 20.5606 3.87417 21.0289 5.22153C21.8519 7.58908 22.1723 10.5635 22.2621 13.5319H24.2281C24.3181 10.5635 24.6383 7.58908 25.4614 5.22153C25.9298 3.87417 26.6079 2.58167 27.6271 1.60842C28.6933 0.590223 30.055 0 31.659 0C33.7117 0 35.4176 0.799416 36.551 2.29168C37.6236 3.7041 38.0214 5.52179 38.0214 7.33174C38.0214 8.86089 37.5481 10.9476 37.066 12.7262C36.7055 14.0553 36.3026 15.3422 35.9798 16.3251C37.4076 16.9799 39.4583 18.1182 41.3164 19.8955C43.6876 22.1635 45.7831 25.5186 45.7831 30.1716C45.7831 35.0008 43.6831 39.2686 39.7241 42.2759C35.8121 45.2475 30.2131 46.902 23.2625 46.9072H23.2277Z" fill="#633001"/>
<path d="M14.831 1.72168C11.8249 1.72168 10.4411 3.96903 10.4411 7.07705C10.4411 9.54748 12.049 14.4951 12.7087 16.4211C12.857 16.8543 12.6239 17.3289 12.1987 17.4969C9.78938 18.4489 2.67926 21.9344 2.67926 29.9171C2.67926 38.3259 9.90476 44.6661 23.2291 44.6763C23.2345 44.6763 23.2397 44.6761 23.245 44.6761C23.2504 44.6761 23.2556 44.6763 23.261 44.6763C36.5852 44.6661 43.8107 38.3259 43.8107 29.9171C43.8107 21.9344 36.7007 18.4489 34.2914 17.4969C33.8662 17.3289 33.6331 16.8543 33.7814 16.4211C34.4412 14.4951 36.0491 9.54748 36.0491 7.07705C36.0491 3.96903 34.6652 1.72168 31.659 1.72168C27.3319 1.72168 26.2531 7.86408 26.1762 14.4564C26.1712 14.8965 25.816 15.2535 25.3769 15.2535H21.1133C20.674 15.2535 20.319 14.8965 20.3139 14.4564C20.2369 7.86408 19.1583 1.72168 14.831 1.72168Z" fill="#D1884F"/>
<path d="M23.261 41.9821C13.4709 41.9821 2.69619 36.7306 2.67931 29.9326C2.67929 29.943 2.67926 29.9536 2.67926 29.9643C2.67926 38.3799 9.91626 44.7234 23.261 44.7234C36.6057 44.7234 43.8426 38.3799 43.8426 29.9643C43.8426 29.9536 43.8426 29.943 43.8426 29.9326C43.8257 36.7306 33.051 41.9821 23.261 41.9821Z" fill="#FEDC90"/>
<path d="M17.8213 27.845C17.8213 30.1402 16.7389 31.3355 15.4037 31.3355C14.0685 31.3355 12.9861 30.1402 12.9861 27.845C12.9861 25.5498 14.0685 24.3545 15.4037 24.3545C16.7389 24.3545 17.8213 25.5498 17.8213 27.845Z" fill="#633001"/>
<path d="M33.536 27.845C33.536 30.1402 32.4536 31.3355 31.1183 31.3355C29.7831 31.3355 28.7007 30.1402 28.7007 27.845C28.7007 25.5498 29.7831 24.3545 31.1183 24.3545C32.4536 24.3545 33.536 25.5498 33.536 27.845Z" fill="#633001"/>
</g>
<defs>
<clipPath id="clip0_153_2">
<rect width="305" height="47" fill="white"/>
</clipPath>
</defs>
</svg>
