<svg width="189" height="44" viewBox="0 0 189 44" fill="none" xmlns="http://www.w3.org/2000/svg">
<g opacity="0.5" clip-path="url(#clip0_154_2)">
<path d="M43.2494 22C43.2494 34.1496 33.567 44 21.6247 44C9.68238 44 0 34.1496 0 22C0 9.85041 9.68238 0 21.6247 0C33.5696 0 43.2494 9.85041 43.2494 22Z" fill="#2081E2"/>
<path d="M10.6687 22.7388L10.762 22.5896L16.3875 13.6365C16.4697 13.5054 16.663 13.519 16.7251 13.6614C17.665 15.8041 18.4759 18.469 18.096 20.1281C17.9338 20.8107 17.4895 21.7352 16.9895 22.5896C16.9251 22.7139 16.854 22.836 16.7785 22.9535C16.7429 23.0077 16.6829 23.0394 16.6185 23.0394H10.8331C10.6776 23.0394 10.5865 22.8676 10.6687 22.7388Z" fill="white"/>
<path d="M35.7432 24.4026V25.8198C35.7432 25.9012 35.6944 25.9735 35.6233 26.0052C35.1878 26.195 33.697 26.8912 33.0772 27.7682C31.4953 30.0082 30.2867 33.211 27.585 33.211H16.3141C12.3195 33.211 9.0824 29.9065 9.0824 25.8289V25.6978C9.0824 25.5893 9.16903 25.5011 9.27568 25.5011H15.5588C15.6832 25.5011 15.7743 25.6187 15.7632 25.743C15.7187 26.1589 15.7943 26.5838 15.9876 26.9703C16.3608 27.7411 17.134 28.2225 17.9693 28.2225H21.0798V25.752H18.0049C17.8472 25.752 17.7539 25.5667 17.8449 25.4356C17.8783 25.3836 17.916 25.3294 17.956 25.2683C18.2471 24.8479 18.6625 24.1947 19.0758 23.4511C19.3579 22.9493 19.6312 22.4136 19.8512 21.8756C19.8956 21.7784 19.9311 21.679 19.9667 21.5818C20.0267 21.41 20.0889 21.2495 20.1333 21.089C20.1778 20.9534 20.2133 20.811 20.2488 20.6776C20.3533 20.2211 20.3977 19.7374 20.3977 19.2356C20.3977 19.039 20.3888 18.8333 20.3711 18.6366C20.3622 18.4219 20.3355 18.2071 20.3088 17.9924C20.291 17.8026 20.2577 17.6149 20.2222 17.4183C20.1778 17.1312 20.1155 16.8465 20.0444 16.5594L20.02 16.4509C19.9667 16.2542 19.9223 16.0667 19.8601 15.87C19.6845 15.2529 19.4824 14.6517 19.2691 14.0889C19.1913 13.8651 19.1024 13.6504 19.0135 13.4357C18.8825 13.1125 18.7492 12.8186 18.627 12.5406C18.5648 12.414 18.5115 12.2987 18.4581 12.1812C18.3982 12.0478 18.336 11.9145 18.2737 11.7879C18.2293 11.6907 18.1782 11.6003 18.1426 11.5099L17.7627 10.7956C17.7094 10.6984 17.7983 10.5832 17.9027 10.6126L20.28 11.268H20.2866C20.291 11.268 20.2933 11.2703 20.2955 11.2703L20.6088 11.3584L20.9532 11.4579L21.0798 11.4941V10.0565C21.0798 9.36261 21.6263 8.7998 22.3018 8.7998C22.6394 8.7998 22.946 8.93994 23.166 9.16822C23.3859 9.39653 23.5237 9.70845 23.5237 10.0565V12.1903L23.777 12.2626C23.797 12.2694 23.817 12.2784 23.8347 12.292C23.897 12.3394 23.9858 12.4095 24.0991 12.4954C24.188 12.5677 24.2835 12.6559 24.3991 12.7463C24.6279 12.9339 24.9012 13.1757 25.2011 13.4538C25.2811 13.5238 25.3588 13.5962 25.4299 13.6685C25.8166 14.0347 26.2498 14.4641 26.663 14.9388C26.7785 15.0721 26.8919 15.2077 27.0074 15.3501C27.1229 15.4948 27.2451 15.6372 27.3517 15.7796C27.4917 15.9695 27.6428 16.1661 27.7739 16.3718C27.8361 16.469 27.9072 16.5684 27.9672 16.6656C28.136 16.9255 28.2849 17.1946 28.4271 17.4635C28.4871 17.5878 28.5493 17.7234 28.6026 17.8568C28.7603 18.2162 28.8848 18.5824 28.9647 18.9485C28.9892 19.0276 29.0069 19.1135 29.0158 19.1904V19.2085C29.0425 19.3169 29.0514 19.4322 29.0603 19.5498C29.0958 19.925 29.078 20.3002 28.9981 20.6776C28.9647 20.8382 28.9203 20.9896 28.867 21.1501C28.8137 21.3038 28.7603 21.4642 28.6915 21.6157C28.5582 21.9298 28.4004 22.244 28.2138 22.5379C28.1538 22.6464 28.0827 22.7617 28.0116 22.8702C27.9338 22.9854 27.8539 23.0939 27.7828 23.2002C27.685 23.3358 27.5806 23.4782 27.474 23.6047C27.3784 23.7381 27.2807 23.8715 27.174 23.989C27.0252 24.1676 26.883 24.3371 26.7341 24.4998C26.6453 24.6061 26.5497 24.7146 26.4519 24.8118C26.3564 24.9202 26.2586 25.0174 26.1698 25.1078C26.021 25.2593 25.8965 25.3768 25.7921 25.474L25.5477 25.7023C25.5122 25.734 25.4655 25.752 25.4166 25.752H23.5237V28.2225H25.9054C26.4386 28.2225 26.9452 28.0304 27.354 27.6778C27.4939 27.5535 28.1049 27.0155 28.827 26.2041C28.8514 26.1769 28.8825 26.1566 28.9181 26.1476L35.4966 24.2128C35.6189 24.1766 35.7432 24.2715 35.7432 24.4026Z" fill="white"/>
<path d="M64.3218 32.5587C62.367 32.5587 60.5699 32.113 58.9312 31.2216C57.312 30.3302 56.0184 29.0901 55.0509 27.5012C54.1033 25.8928 53.6293 24.0907 53.6293 22.0949C53.6293 20.099 54.1033 18.3066 55.0509 16.7176C56.0184 15.1287 57.312 13.8885 58.9312 12.9972C60.5699 12.1058 62.367 11.6602 64.3218 11.6602C66.2767 11.6602 68.0638 12.1058 69.683 12.9972C71.3222 13.8885 72.6054 15.1287 73.5335 16.7176C74.4816 18.3066 74.9551 20.099 74.9551 22.0949C74.9551 24.0907 74.4816 25.8928 73.5335 27.5012C72.5859 29.0901 71.3023 30.3302 69.683 31.2216C68.0638 32.113 66.2767 32.5587 64.3218 32.5587ZM64.3218 28.0243C65.9804 28.0243 67.3034 27.4818 68.2908 26.3966C69.2981 25.3115 69.8015 23.8776 69.8015 22.0949C69.8015 20.2928 69.2981 18.8589 68.2908 17.7931C67.3034 16.708 65.9804 16.1654 64.3218 16.1654C62.6433 16.1654 61.3009 16.6983 60.2936 17.764C59.3062 18.8298 58.8127 20.2734 58.8127 22.0949C58.8127 23.897 59.3062 25.3406 60.2936 26.4257C61.3009 27.4915 62.6433 28.0243 64.3218 28.0243Z" fill="white"/>
<path d="M82.8383 18.4321C83.3317 17.6764 84.0129 17.066 84.8818 16.6009C85.7507 16.1359 86.7675 15.9033 87.9326 15.9033C89.295 15.9033 90.5293 16.2424 91.6352 16.9206C92.7406 17.5989 93.6095 18.5677 94.2414 19.8272C94.8932 21.0868 95.2188 22.5498 95.2188 24.2162C95.2188 25.8827 94.8932 27.3554 94.2414 28.6343C93.6095 29.8938 92.7406 30.8723 91.6352 31.57C90.5293 32.2482 89.295 32.5872 87.9326 32.5872C86.7874 32.5872 85.7706 32.3547 84.8818 31.8897C84.0129 31.4246 83.3317 30.8239 82.8383 30.0876V37.1797H77.7733V16.1359H82.8383V18.4321ZM90.0652 24.2162C90.0652 22.9761 89.7097 22.0072 88.9987 21.3096C88.3076 20.5927 87.4486 20.2342 86.4219 20.2342C85.4151 20.2342 84.5561 20.5927 83.8451 21.3096C83.154 22.0266 82.8084 23.0051 82.8084 24.2453C82.8084 25.4855 83.154 26.464 83.8451 27.181C84.5561 27.8979 85.4151 28.2564 86.4219 28.2564C87.4292 28.2564 88.2881 27.8979 88.9987 27.181C89.7097 26.4446 90.0652 25.4564 90.0652 24.2162Z" fill="white"/>
<path d="M113.456 23.9837C113.456 24.4488 113.426 24.9332 113.367 25.437H101.904C101.983 26.4446 102.309 27.2197 102.882 27.7623C103.474 28.2855 104.195 28.5471 105.044 28.5471C106.308 28.5471 107.186 28.0239 107.68 26.9775H113.071C112.795 28.0433 112.291 29.0024 111.56 29.8551C110.85 30.7077 109.951 31.3762 108.865 31.8606C107.779 32.345 106.564 32.5872 105.222 32.5872C103.603 32.5872 102.161 32.2482 100.897 31.57C99.6337 30.8917 98.6463 29.9229 97.9353 28.6633C97.2247 27.4038 96.8692 25.9311 96.8692 24.2453C96.8692 22.5595 97.2148 21.0868 97.9059 19.8272C98.6165 18.5677 99.6039 17.5989 100.868 16.9206C102.131 16.2424 103.583 15.9033 105.222 15.9033C106.821 15.9033 108.243 16.2327 109.487 16.8916C110.731 17.5504 111.699 18.4902 112.39 19.711C113.101 20.9318 113.456 22.356 113.456 23.9837ZM108.273 22.6757C108.273 21.8231 107.977 21.1449 107.384 20.6411C106.791 20.1373 106.051 19.8854 105.163 19.8854C104.313 19.8854 103.593 20.1276 103 20.612C102.428 21.0965 102.072 21.7844 101.934 22.6757H108.273Z" fill="white"/>
<path d="M126.199 15.9619C128.134 15.9619 129.674 16.582 130.819 17.8221C131.984 19.0429 132.567 20.7287 132.567 22.8796V32.3552H127.531V23.5481C127.531 22.463 127.245 21.6201 126.672 21.0194C126.1 20.4187 125.33 20.1183 124.362 20.1183C123.395 20.1183 122.625 20.4187 122.052 21.0194C121.479 21.6201 121.193 22.463 121.193 23.5481V32.3552H116.128V16.1363H121.193V18.2872C121.706 17.5702 122.398 17.0083 123.266 16.6014C124.135 16.1751 125.112 15.9619 126.199 15.9619Z" fill="white"/>
<path d="M143.61 32.5587C142.089 32.5587 140.727 32.3164 139.522 31.832C138.318 31.3476 137.35 30.6306 136.62 29.6811C135.909 28.7316 135.533 27.5884 135.494 26.2513H140.885C140.964 27.007 141.23 27.5884 141.685 27.9953C142.139 28.3828 142.731 28.5766 143.462 28.5766C144.212 28.5766 144.804 28.4119 145.239 28.0825C145.673 27.7337 145.891 27.2589 145.891 26.6583C145.891 26.1544 145.713 25.7378 145.357 25.4084C145.022 25.079 144.597 24.8077 144.084 24.5946C143.59 24.3814 142.879 24.1392 141.951 23.8679C140.608 23.461 139.512 23.054 138.663 22.6471C137.814 22.2402 137.084 21.6395 136.471 20.845C135.859 20.0506 135.553 19.0139 135.553 17.735C135.553 15.836 136.254 14.3536 137.656 13.2878C139.058 12.2027 140.885 11.6602 143.136 11.6602C145.427 11.6602 147.272 12.2027 148.675 13.2878C150.077 14.3536 150.827 15.8457 150.926 17.764H145.446C145.407 17.1052 145.16 16.5917 144.706 16.2235C144.252 15.836 143.669 15.6422 142.958 15.6422C142.346 15.6422 141.852 15.8069 141.477 16.1363C141.102 16.4463 140.914 16.9017 140.914 17.5024C140.914 18.1612 141.23 18.6748 141.862 19.0429C142.494 19.4111 143.481 19.8083 144.824 20.2347C146.167 20.6803 147.253 21.1066 148.082 21.5136C148.932 21.9205 149.662 22.5115 150.274 23.2866C150.886 24.0617 151.192 25.0596 151.192 26.2804C151.192 27.443 150.886 28.4991 150.274 29.4486C149.682 30.3981 148.813 31.1538 147.668 31.7158C146.523 32.2777 145.17 32.5587 143.61 32.5587Z" fill="white"/>
<path d="M169.889 23.9837C169.889 24.4488 169.86 24.9332 169.8 25.437H158.337C158.417 26.4446 158.742 27.2197 159.315 27.7623C159.907 28.2855 160.628 28.5471 161.477 28.5471C162.741 28.5471 163.62 28.0239 164.113 26.9775H169.504C169.228 28.0433 168.724 29.0024 167.994 29.8551C167.283 30.7077 166.384 31.3762 165.298 31.8606C164.212 32.345 162.998 32.5872 161.655 32.5872C160.036 32.5872 158.594 32.2482 157.331 31.57C156.067 30.8917 155.079 29.9229 154.368 28.6633C153.658 27.4038 153.302 25.9311 153.302 24.2453C153.302 22.5595 153.648 21.0868 154.339 19.8272C155.05 18.5677 156.037 17.5989 157.301 16.9206C158.565 16.2424 160.016 15.9033 161.655 15.9033C163.254 15.9033 164.676 16.2327 165.92 16.8916C167.164 17.5504 168.132 18.4902 168.823 19.711C169.534 20.9318 169.889 22.356 169.889 23.9837ZM164.706 22.6757C164.706 21.8231 164.41 21.1449 163.817 20.6411C163.225 20.1373 162.484 19.8854 161.596 19.8854C160.747 19.8854 160.026 20.1276 159.433 20.612C158.861 21.0965 158.505 21.7844 158.367 22.6757H164.706Z" fill="white"/>
<path d="M171.554 24.2162C171.554 22.5498 171.87 21.0868 172.502 19.8272C173.153 18.5677 174.032 17.5989 175.138 16.9206C176.244 16.2424 177.478 15.9033 178.841 15.9033C180.005 15.9033 181.023 16.1359 181.892 16.6009C182.78 17.066 183.461 17.6764 183.935 18.4321V16.1359H189V32.3547H183.935V30.0585C183.442 30.8142 182.75 31.4246 181.862 31.8897C180.993 32.3547 179.976 32.5872 178.811 32.5872C177.468 32.5872 176.244 32.2482 175.138 31.57C174.032 30.8723 173.153 29.8938 172.502 28.6343C171.87 27.3554 171.554 25.8827 171.554 24.2162ZM183.935 24.2453C183.935 23.0051 183.58 22.0266 182.869 21.3096C182.178 20.5927 181.328 20.2342 180.322 20.2342C179.314 20.2342 178.455 20.5927 177.745 21.3096C177.054 22.0072 176.708 22.9761 176.708 24.2162C176.708 25.4564 177.054 26.4446 177.745 27.181C178.455 27.8979 179.314 28.2564 180.322 28.2564C181.328 28.2564 182.178 27.8979 182.869 27.181C183.58 26.464 183.935 25.4855 183.935 24.2453Z" fill="white"/>
</g>
<defs>
<clipPath id="clip0_154_2">
<rect width="189" height="44" fill="white"/>
</clipPath>
</defs>
</svg>
